<?xml version="1.0" encoding="UTF-8" standalone="no"?>
<svg
   xmlns:dc="http://purl.org/dc/elements/1.1/"
   xmlns:cc="http://creativecommons.org/ns#"
   xmlns:rdf="http://www.w3.org/1999/02/22-rdf-syntax-ns#"
   xmlns:svg="http://www.w3.org/2000/svg"
   xmlns="http://www.w3.org/2000/svg"
   id="svg8"
   version="1.1"
   viewBox="0 0 210 297"
   height="297mm"
   width="210mm">
  <defs
     id="defs2" />
  <metadata
     id="metadata5">
    <rdf:RDF>
      <cc:Work
         rdf:about="">
        <dc:format>image/svg+xml</dc:format>
        <dc:type
           rdf:resource="http://purl.org/dc/dcmitype/StillImage" />
        <dc:title></dc:title>
      </cc:Work>
    </rdf:RDF>
  </metadata>
  <g
     id="layer1">
    <g
       transform="matrix(4.0934713,0,0,4.0934713,-739.11062,-256.58556)"
       id="g1851">
      <path
         style="fill:#8a6f91;fill-opacity:1;stroke:#8a6f91;stroke-width:0.99999994;stroke-opacity:1"
         d="m 480.8457,104.87109 a 78.641506,76.291124 0 0 0 -5.5625,0.19141 78.641506,76.291124 0 0 0 -7.80468,0.91797 78.641506,76.291124 0 0 0 -7.66993,1.66992 78.641506,76.291124 0 0 0 -7.45898,2.40625 78.641506,76.291124 0 0 0 -7.17578,3.11524 78.641506,76.291124 0 0 0 -6.81836,3.79296 78.641506,76.291124 0 0 0 -6.39453,4.43555 78.641506,76.291124 0 0 0 -5.90625,5.0332 78.641506,76.291124 0 0 0 -5.35742,5.58008 78.641506,76.291124 0 0 0 -4.75782,6.07031 78.641506,76.291124 0 0 0 -4.10937,6.50196 78.641506,76.291124 0 0 0 -3.41797,6.86718 78.641506,76.291124 0 0 0 -2.69531,7.16407 78.641506,76.291124 0 0 0 -1.94532,7.38867 78.641506,76.291124 0 0 0 -1.17578,7.53906 78.641506,76.291124 0 0 0 -0.39258,7.61719 78.641506,76.291124 0 0 0 0.19727,5.39648 78.641506,76.291124 0 0 0 0.94727,7.57032 78.641506,76.291124 0 0 0 1.72265,7.4414 78.641506,76.291124 0 0 0 2.47852,7.23633 78.641506,76.291124 0 0 0 3.21094,6.96094 78.641506,76.291124 0 0 0 3.91015,6.61523 78.641506,76.291124 0 0 0 4.57227,6.20313 78.641506,76.291124 0 0 0 5.18945,5.72851 78.641506,76.291124 0 0 0 5.75195,5.19922 78.641506,76.291124 0 0 0 6.25782,4.61328 78.641506,76.291124 0 0 0 6.70117,3.98633 78.641506,76.291124 0 0 0 7.07812,3.31836 78.641506,76.291124 0 0 0 7.38477,2.61328 78.641506,76.291124 0 0 0 7.61523,1.88672 78.641506,76.291124 0 0 0 7.77344,1.14063 78.641506,76.291124 0 0 0 7.85156,0.38085 78.641506,76.291124 0 0 0 5.5625,-0.1914 78.641506,76.291124 0 0 0 7.80274,-0.91797 78.641506,76.291124 0 0 0 7.66992,-1.66992 78.641506,76.291124 0 0 0 7.46094,-2.40625 78.641506,76.291124 0 0 0 7.17382,-3.11328 78.641506,76.291124 0 0 0 6.82032,-3.79492 78.641506,76.291124 0 0 0 6.39258,-4.43555 78.641506,76.291124 0 0 0 5.90625,-5.03321 78.641506,76.291124 0 0 0 5.35937,-5.58007 78.641506,76.291124 0 0 0 4.75586,-6.07032 78.641506,76.291124 0 0 0 4.10938,-6.50195 78.641506,76.291124 0 0 0 3.41992,-6.86719 78.641506,76.291124 0 0 0 2.69531,-7.16406 78.641506,76.291124 0 0 0 1.94531,-7.38867 78.641506,76.291124 0 0 0 1.17383,-7.53906 78.641506,76.291124 0 0 0 0.39258,-7.61719 78.641506,76.291124 0 0 0 -0.19727,-5.39649 78.641506,76.291124 0 0 0 -0.94726,-7.57031 78.641506,76.291124 0 0 0 -1.72071,-7.4414 78.641506,76.291124 0 0 0 -2.47851,-7.23633 78.641506,76.291124 0 0 0 -3.21094,-6.96094 78.641506,76.291124 0 0 0 -3.91211,-6.61523 78.641506,76.291124 0 0 0 -4.57226,-6.20313 78.641506,76.291124 0 0 0 -5.1875,-5.72851 78.641506,76.291124 0 0 0 -5.75196,-5.19922 78.641506,76.291124 0 0 0 -6.25781,-4.61328 78.641506,76.291124 0 0 0 -6.70117,-3.98633 78.641506,76.291124 0 0 0 -7.08008,-3.31836 78.641506,76.291124 0 0 0 -7.38281,-2.61328 78.641506,76.291124 0 0 0 -7.61719,-1.88672 78.641506,76.291124 0 0 0 -7.77344,-1.14063 78.641506,76.291124 0 0 0 -7.84961,-0.38086 z"
         id="path1827"
         transform="scale(0.26458333)" />
      <g
         id="g1811">
        <path
           style="fill:#483745;stroke:none;stroke-width:0.30055326px;stroke-linecap:butt;stroke-linejoin:miter;stroke-opacity:1"
           d="m 133.62441,33.844591 c 8.31307,15.768491 5.82692,28.637704 -3.01206,30.355846 -5.50643,1.070353 -13.52981,-3.528644 -14.60886,-11.852871 0,0 -6.54966,-17.792445 2.21923,-15.488319 0,0 2.38125,16.870443 4.91984,21.353987 1.6826,2.971733 9.40231,2.457301 11.21209,-1.708015 1.35895,-3.12767 -4.1252,-20.496193 -4.1252,-20.496193 0,0 -0.75143,-2.624417 3.39496,-2.164435"
           id="path1782" />
        <path
           style="fill:#2b0011;fill-opacity:1;stroke:none;stroke-width:0.25821704;stroke-opacity:1"
           d="m 127.22335,27.741385 a 20.814134,20.191091 0 0 0 -20.8139,20.191091 20.814134,20.191091 0 0 0 20.8139,20.191091 20.814134,20.191091 0 0 0 20.81441,-20.191091 20.814134,20.191091 0 0 0 -20.81441,-20.191091 z m 0.48184,0.514196 c 0.59037,-0.01466 1.14755,-2.65e-4 1.67799,0.03928 0.53045,0.03961 1.03394,0.104577 1.51773,0.192241 0.48379,0.08767 0.9475,0.198144 1.3979,0.327638 0.4504,0.129496 0.88776,0.278297 1.31802,0.443396 0.86053,0.330205 1.69404,0.725395 2.55361,1.160687 0.85957,0.435295 1.62545,0.863075 2.30525,1.271794 0.67981,0.408722 1.27334,0.798354 1.78758,1.15707 1.02848,0.717436 1.74015,1.31147 2.19158,1.688319 0.45143,0.376849 0.677,0.565045 0.79317,0.694035 0.11617,0.128989 0.12287,0.198349 0.13621,0.337457 0.007,0.06955 0.0155,0.162766 0.008,0.263041 -0.008,0.100275 -0.0325,0.207696 -0.0927,0.306965 -0.0602,0.09927 -0.15567,0.190297 -0.30621,0.256841 -0.15054,0.06654 -0.35617,0.108499 -0.63495,0.110592 -0.55754,0.0042 -1.40333,-0.135892 -2.39998,-0.324021 -0.99665,-0.188133 -2.14415,-0.424254 -3.30376,-0.611867 -1.15962,-0.187614 -2.34836,-0.32845 -3.63353,-0.403089 -1.28515,-0.07464 -2.6666,-0.08289 -4.21009,-0.0041 -1.54349,0.07876 -3.03663,0.217835 -4.33196,0.427378 -0.64766,0.10477 -1.24603,0.227111 -1.77631,0.368464 -0.53028,0.14135 -0.99221,0.301634 -1.3682,0.482154 -0.376,0.18052 -0.71753,0.390785 -1.02052,0.621685 -0.30299,0.230901 -0.56778,0.48244 -0.78959,0.746229 -0.2218,0.263792 -0.4011,0.53939 -0.53355,0.818579 -0.13246,0.279191 -0.21803,0.562153 -0.25296,0.839251 -0.0349,0.277096 -0.0179,0.544674 0.044,0.800491 0.0619,0.255818 0.1689,0.499599 0.31491,0.729176 0.14602,0.229578 0.3306,0.445011 0.5479,0.643391 0.21729,0.198379 0.46721,0.379876 0.74299,0.542102 0.27577,0.162223 0.65493,0.324754 1.09989,0.484739 0.44495,0.159985 0.95582,0.317363 1.49416,0.469236 1.0767,0.303743 2.26423,0.585088 3.25973,0.821161 0.99549,0.236076 2.15515,0.453985 3.38261,0.704371 1.22747,0.250385 2.52301,0.533632 3.7897,0.900747 0.63335,0.183557 1.35139,0.391531 2.09942,0.630986 0.74803,0.239458 1.52579,0.510039 2.2776,0.818579 0.75181,0.30854 1.47775,0.655156 2.12246,1.045963 0.32235,0.195403 0.62438,0.401694 0.89916,0.620135 0.27478,0.218441 0.52247,0.448842 0.73582,0.691967 0.21335,0.243127 0.41046,0.502765 0.59091,0.77672 0.18044,0.273955 0.34428,0.56224 0.49105,0.863538 0.29355,0.602598 0.51907,1.256683 0.67335,1.947742 0.15429,0.691059 0.23739,1.419349 0.2463,2.170991 0.009,0.751643 -0.0566,1.526696 -0.19919,2.311037 -0.0713,0.392171 -0.15811,0.781932 -0.26524,1.168439 -0.10713,0.386504 -0.23447,0.769619 -0.3866,1.147767 -0.15213,0.378148 -0.3288,0.751209 -0.5351,1.11831 -0.20629,0.367104 -0.44213,0.728253 -0.71175,1.081619 -0.26962,0.353367 -0.57344,0.699204 -0.91555,1.036144 -0.3421,0.336941 -0.72273,0.66509 -1.14648,0.982914 -0.42375,0.317824 -0.89052,0.625401 -1.40507,0.921417 -0.51455,0.296019 -1.07678,0.580132 -1.6913,0.851653 -0.61453,0.271523 -1.20994,0.51019 -1.79117,0.717806 -0.58122,0.20762 -1.14816,0.384184 -1.70615,0.531767 -0.558,0.147584 -1.10704,0.266192 -1.65188,0.357611 -0.54485,0.09142 -1.08554,0.155699 -1.62731,0.194826 -0.54176,0.03913 -1.08467,0.05322 -1.63344,0.04393 -0.54877,-0.0093 -1.10345,-0.04176 -1.66929,-0.0956 -1.13199,-0.107732 -2.30783,-0.30065 -3.56828,-0.563328 -1.26046,-0.262678 -2.28517,-0.541298 -3.1312,-0.829949 -0.84604,-0.288647 -1.5133,-0.587233 -2.05999,-0.889893 -0.54669,-0.302658 -0.97249,-0.609473 -1.33492,-0.914184 -0.36242,-0.304708 -0.66175,-0.607496 -0.95498,-0.902295 -0.58646,-0.589602 -0.98674,-0.981961 -1.3385,-1.363782 -0.35177,-0.381821 -0.65506,-0.753031 -1.04612,-1.300216 -0.19553,-0.273593 -0.39792,-0.570567 -0.57658,-0.868706 -0.17865,-0.298141 -0.33339,-0.597433 -0.43319,-0.876458 -0.0998,-0.279027 -0.14446,-0.537731 -0.10344,-0.753981 0.0205,-0.108128 0.0622,-0.205669 0.12955,-0.289915 0.0673,-0.08425 0.16023,-0.154902 0.28214,-0.209813 0.24383,-0.109816 0.60273,-0.145091 1.04664,-0.12816 0.4439,0.01693 0.97261,0.08579 1.55664,0.183457 1.16805,0.195326 2.55661,0.506139 3.92539,0.748295 1.36877,0.242159 2.73955,0.424862 4.15223,0.529701 0.70634,0.05242 1.42298,0.08547 2.15523,0.09664 0.73225,0.01117 1.4798,5.29e-4 2.24791,-0.03411 0.76811,-0.0347 1.51953,-0.087 2.23869,-0.15762 0.71916,-0.07062 1.40618,-0.159453 2.04616,-0.268208 0.63997,-0.108755 1.23295,-0.237454 1.76351,-0.386551 0.53055,-0.149098 0.99881,-0.318928 1.38971,-0.510577 0.3909,-0.191651 0.74515,-0.409737 1.05841,-0.648041 0.31326,-0.238304 0.58553,-0.496791 0.8116,-0.767936 0.22608,-0.271143 0.40626,-0.555282 0.53561,-0.845451 0.12935,-0.290169 0.20785,-0.586244 0.23094,-0.881625 0.0231,-0.295384 -0.004,-0.584945 -0.0758,-0.864057 -0.0716,-0.279109 -0.18726,-0.548021 -0.34103,-0.801007 -0.15377,-0.252986 -0.34583,-0.490462 -0.5694,-0.707471 -0.22358,-0.217007 -0.47894,-0.413297 -0.75989,-0.584477 -0.28095,-0.17118 -0.68484,-0.345106 -1.16901,-0.518331 -0.48418,-0.173223 -1.04852,-0.345723 -1.64933,-0.513677 -1.20161,-0.335912 -2.54993,-0.65408 -3.69855,-0.925037 -1.14862,-0.270957 -2.39551,-0.513148 -3.6284,-0.77 -1.23289,-0.256854 -2.45171,-0.528219 -3.54494,-0.857854 -1.09323,-0.329636 -2.50493,-0.755432 -3.86138,-1.254226 -0.67823,-0.249395 -1.3429,-0.516865 -1.94682,-0.799972 -0.60393,-0.28311 -1.14707,-0.581892 -1.58327,-0.892995 -0.43621,-0.311104 -0.82987,-0.66573 -1.18796,-1.049064 -0.3581,-0.383332 -0.68064,-0.795091 -0.97444,-1.220114 -0.2938,-0.425026 -0.55906,-0.863525 -0.80238,-1.299701 -0.24332,-0.436178 -0.46465,-0.870507 -0.6713,-1.287299 -0.20666,-0.416792 -0.39482,-0.811866 -0.52076,-1.211848 -0.063,-0.199991 -0.11021,-0.401038 -0.13672,-0.6067 -0.0265,-0.205658 -0.0321,-0.415659 -0.0113,-0.633571 0.0208,-0.217909 0.068,-0.443854 0.14696,-0.680597 0.079,-0.236743 0.18942,-0.484591 0.33744,-0.746747 0.14803,-0.262155 0.3333,-0.538382 0.56121,-0.832531 0.22791,-0.294148 0.49858,-0.606265 0.81724,-0.938989 0.63732,-0.665449 1.31501,-1.299052 2.06664,-1.89348 0.37582,-0.297215 0.77038,-0.584545 1.18745,-0.860955 0.41706,-0.276408 0.85638,-0.542269 1.32314,-0.79584 0.46676,-0.253571 0.96057,-0.495309 1.48546,-0.724008 0.5249,-0.228697 1.08089,-0.444183 1.67237,-0.645973 0.59148,-0.201793 1.21835,-0.389404 1.88486,-0.562256 0.66651,-0.172855 1.37298,-0.330972 2.12297,-0.472853 0.74999,-0.141882 1.45328,-0.248862 2.11682,-0.324021 0.66355,-0.07516 1.28733,-0.118667 1.8777,-0.13333 z"
           id="path1784" />
        <path
           style="fill:#441650;stroke:none;stroke-width:0.28881028;stroke-opacity:0.91623038"
           d="m 127.22387,27.611682 a 20.942634,20.32067 0 0 0 -20.94293,20.320794 20.942634,20.32067 0 0 0 20.94293,20.320794 20.942634,20.32067 0 0 0 20.9424,-20.320794 20.942634,20.32067 0 0 0 -20.9424,-20.320794 z m 0,0.919537 a 19.995004,19.401183 0 0 1 1.99572,0.09725 19.995004,19.401183 0 0 1 1.97655,0.289696 19.995004,19.401183 0 0 1 1.93665,0.47953 19.995004,19.401183 0 0 1 1.87704,0.665208 19.995004,19.401183 0 0 1 1.79984,0.843601 19.995004,19.401183 0 0 1 1.70395,1.013673 19.995004,19.401183 0 0 1 1.59099,1.173343 19.995004,19.401183 0 0 1 1.46245,1.322091 19.995004,19.401183 0 0 1 1.31943,1.4568 19.995004,19.401183 0 0 1 1.1624,1.577461 19.995004,19.401183 0 0 1 0.9945,1.682518 19.995004,19.401183 0 0 1 0.81621,1.769898 19.995004,19.401183 0 0 1 0.63018,1.840632 19.995004,19.401183 0 0 1 0.43791,1.892121 19.995004,19.401183 0 0 1 0.24098,1.925407 19.995004,19.401183 0 0 1 0.0498,1.372021 19.995004,19.401183 0 0 1 -0.0995,1.93685 19.995004,19.401183 0 0 1 -0.29902,1.917605 19.995004,19.401183 0 0 1 -0.4944,1.879118 19.995004,19.401183 0 0 1 -0.6851,1.821908 19.995004,19.401183 0 0 1 -0.86961,1.745972 19.995004,19.401183 0 0 1 -1.04476,1.653395 19.995004,19.401183 0 0 1 -1.20956,1.543654 19.995004,19.401183 0 0 1 -1.36244,1.41935 19.995004,19.401183 0 0 1 -1.50133,1.279966 19.995004,19.401183 0 0 1 -1.6257,1.127573 19.995004,19.401183 0 0 1 -1.7335,0.965305 19.995004,19.401183 0 0 1 -1.8247,0.79211 19.995004,19.401183 0 0 1 -1.89674,0.611636 19.995004,19.401183 0 0 1 -1.95012,0.424401 19.995004,19.401183 0 0 1 -1.98381,0.234045 19.995004,19.401183 0 0 1 -1.41426,0.04836 19.995004,19.401183 0 0 1 -1.99625,-0.09674 19.995004,19.401183 0 0 1 -1.97655,-0.289695 19.995004,19.401183 0 0 1 -1.93613,-0.480053 19.995004,19.401183 0 0 1 -1.87756,-0.665204 19.995004,19.401183 0 0 1 -1.79983,-0.843082 19.995004,19.401183 0 0 1 -1.70396,-1.013674 19.995004,19.401183 0 0 1 -1.59098,-1.173862 19.995004,19.401183 0 0 1 -1.46247,-1.322092 19.995004,19.401183 0 0 1 -1.3189,-1.456799 19.995004,19.401183 0 0 1 -1.16292,-1.577461 19.995004,19.401183 0 0 1 -0.9945,-1.681999 19.995004,19.401183 0 0 1 -0.81622,-1.770418 19.995004,19.401183 0 0 1 -0.63017,-1.840113 19.995004,19.401183 0 0 1 -0.43791,-1.892639 19.995004,19.401183 0 0 1 -0.24098,-1.924886 19.995004,19.401183 0 0 1 -0.0497,-1.372542 19.995004,19.401183 0 0 1 0.0995,-1.93685 19.995004,19.401183 0 0 1 0.29902,-1.917604 19.995004,19.401183 0 0 1 0.4944,-1.879119 19.995004,19.401183 0 0 1 0.68511,-1.821386 19.995004,19.401183 0 0 1 0.86959,-1.746494 19.995004,19.401183 0 0 1 1.04477,-1.653395 19.995004,19.401183 0 0 1 1.20956,-1.543655 19.995004,19.401183 0 0 1 1.36244,-1.41883 19.995004,19.401183 0 0 1 1.50133,-1.279963 19.995004,19.401183 0 0 1 1.6257,-1.128096 19.995004,19.401183 0 0 1 1.73402,-0.964784 19.995004,19.401183 0 0 1 1.82418,-0.792111 19.995004,19.401183 0 0 1 1.89675,-0.611635 19.995004,19.401183 0 0 1 1.95012,-0.424924 19.995004,19.401183 0 0 1 1.9838,-0.233523 19.995004,19.401183 0 0 1 1.41479,-0.04889 z"
           id="path1786" />
      </g>
    </g>
    <g
       transform="matrix(4.6163839,0,0,4.6163839,-303.91704,-453.42785)"
       id="g53">
      <g
         id="g1859"
         transform="translate(-110.91132,118.88014)">
        <g
           id="g1844">
          <path
             style="fill:#441650;fill-opacity:1;stroke:none;stroke-width:0.99999994;stroke-opacity:1"
             d="m 754.02734,-31.382812 a 78.641507,76.291124 0 0 0 -5.5625,0.191406 78.641507,76.291124 0 0 0 -7.80468,0.916015 78.641507,76.291124 0 0 0 0,0.002 78.641507,76.291124 0 0 0 -7.66993,1.669922 78.641507,76.291124 0 0 0 -7.45898,2.40625 78.641507,76.291124 0 0 0 -7.17578,3.113282 78.641507,76.291124 0 0 0 0,0.002 78.641507,76.291124 0 0 0 -6.81836,3.792969 78.641507,76.291124 0 0 0 -6.39453,4.435546 78.641507,76.291124 0 0 0 -5.90625,5.0312504 78.641507,76.291124 0 0 0 0,0.00195 78.641507,76.291124 0 0 0 -5.35742,5.5800781 78.641507,76.291124 0 0 0 -4.75782,6.0703125 78.641507,76.291124 0 0 0 -4.10937,6.5 78.641507,76.291124 0 0 0 0,0.00195 78.641507,76.291124 0 0 0 -3.41797,6.867188 78.641507,76.291124 0 0 0 -2.69531,7.162109 78.641507,76.291124 0 0 0 0,0.002 78.641507,76.291124 0 0 0 -1.94532,7.388672 78.641507,76.291124 0 0 0 -1.17578,7.539063 78.641507,76.291124 0 0 0 -0.39257,7.615234 78.641507,76.291124 0 0 0 0,0.002 78.641507,76.291124 0 0 0 0.19726,5.396485 78.641507,76.291124 0 0 0 0.94727,7.570312 78.641507,76.291124 0 0 0 1.72265,7.439453 78.641507,76.291124 0 0 0 0,0.002 78.641507,76.291124 0 0 0 2.47852,7.236328 78.641507,76.291124 0 0 0 3.21094,6.958985 78.641507,76.291124 0 0 0 0,0.002 78.641507,76.291124 0 0 0 3.91015,6.615234 78.641507,76.291124 0 0 0 4.57227,6.203125 78.641507,76.291124 0 0 0 5.18945,5.726563 78.641507,76.291124 0 0 0 0,0.002 78.641507,76.291124 0 0 0 5.75195,5.19726 78.641507,76.291124 0 0 0 0,0.002 78.641507,76.291124 0 0 0 6.25782,4.61328 78.641507,76.291124 0 0 0 6.70117,3.98633 78.641507,76.291124 0 0 0 7.07812,3.3164 78.641507,76.291124 0 0 0 0,0.002 78.641507,76.291124 0 0 0 7.38477,2.61329 78.641507,76.291124 0 0 0 7.61523,1.88671 78.641507,76.291124 0 0 0 7.77344,1.13868 78.641507,76.291124 0 0 0 0,0.002 78.641507,76.291124 0 0 0 7.85156,0.38086 78.641507,76.291124 0 0 0 5.5625,-0.19141 78.641507,76.291124 0 0 0 7.80274,-0.91797 78.641507,76.291124 0 0 0 7.66992,-1.66992 78.641507,76.291124 0 0 0 7.45898,-2.40625 78.641507,76.291124 0 0 0 0.002,0 78.641507,76.291124 0 0 0 7.17383,-3.11328 78.641507,76.291124 0 0 0 6.81835,-3.79492 78.641507,76.291124 0 0 0 0.002,0 78.641507,76.291124 0 0 0 6.39258,-4.43555 78.641507,76.291124 0 0 0 5.90625,-5.033198 78.641507,76.291124 0 0 0 5.35937,-5.580078 78.641507,76.291124 0 0 0 4.75586,-6.070313 78.641507,76.291124 0 0 0 4.10938,-6.501953 78.641507,76.291124 0 0 0 3.41992,-6.867187 78.641507,76.291124 0 0 0 2.69531,-7.164063 78.641507,76.291124 0 0 0 1.94531,-7.388672 78.641507,76.291124 0 0 0 1.17383,-7.539062 78.641507,76.291124 0 0 0 0.39258,-7.617188 78.641507,76.291124 0 0 0 -0.19727,-5.396484 78.641507,76.291124 0 0 0 -0.94726,-7.570313 78.641507,76.291124 0 0 0 -1.72071,-7.441406 78.641507,76.291124 0 0 0 -2.47851,-7.236328 78.641507,76.291124 0 0 0 -3.21094,-6.960938 78.641507,76.291124 0 0 0 -3.91211,-6.6152342 78.641507,76.291124 0 0 0 -4.57226,-6.203125 78.641507,76.291124 0 0 0 -5.1875,-5.7285156 78.641507,76.291124 0 0 0 -5.75196,-5.1992182 78.641507,76.291124 0 0 0 -6.25781,-4.613282 78.641507,76.291124 0 0 0 -6.70117,-3.986328 78.641507,76.291124 0 0 0 -7.07813,-3.318359 78.641507,76.291124 0 0 0 -0.002,0 78.641507,76.291124 0 0 0 -7.38281,-2.613281 78.641507,76.291124 0 0 0 -7.61719,-1.886719 78.641507,76.291124 0 0 0 -7.77148,-1.140625 78.641507,76.291124 0 0 0 -0.002,0 78.641507,76.291124 0 0 0 -7.84961,-0.380859 z"
             id="path1837"
             transform="scale(0.26458333)" />
          <g
             id="g1780"
             transform="translate(110.64379,-35.653883)">
            <path
               id="path1769"
               d="m 95.259826,33.447716 c 2.217248,9.497643 10.085424,25.503368 2.227091,28.661882 -11.992692,4.21903 -15.281825,1.276186 -19.754469,-10.065363 0,0 -6.643198,-17.885989 2.125686,-15.581863 0,0 2.381256,16.870443 4.919844,21.353987 1.682598,2.971733 9.402305,2.457301 11.212092,-1.708015 1.358943,-3.12767 -4.125205,-20.496193 -4.125205,-20.496193 0,0 -0.751426,-2.624417 3.394959,-2.164435"
               style="fill:#939dac;stroke:none;stroke-width:0.30055326px;stroke-linecap:butt;stroke-linejoin:miter;stroke-opacity:1" />
            <path
               id="path1740"
               d="M 88.858767,27.34451 A 20.814134,20.191091 0 0 0 68.04487,47.535601 20.814134,20.191091 0 0 0 88.858767,67.726692 20.814134,20.191091 0 0 0 109.67318,47.535601 20.814134,20.191091 0 0 0 88.858767,27.34451 Z m 0.481841,0.514196 c 0.590366,-0.01466 1.147547,-2.65e-4 1.677994,0.03928 0.53045,0.03961 1.033931,0.104577 1.517725,0.192241 0.483792,0.08767 0.947504,0.198144 1.397902,0.327638 0.450399,0.129496 0.887758,0.278297 1.318022,0.443396 0.860531,0.330205 1.694037,0.725395 2.553606,1.160687 0.859568,0.435295 1.625453,0.863075 2.305253,1.271794 0.67981,0.408722 1.27334,0.798354 1.78758,1.15707 1.02848,0.717436 1.74015,1.31147 2.19158,1.688319 0.45143,0.376849 0.677,0.565045 0.79317,0.694035 0.11617,0.128989 0.12287,0.198349 0.13621,0.337457 0.007,0.06955 0.0155,0.162766 0.008,0.263041 -0.008,0.100275 -0.0325,0.207696 -0.0927,0.306965 -0.0602,0.09927 -0.15567,0.190297 -0.30621,0.256841 -0.15054,0.06654 -0.35617,0.108499 -0.63495,0.110592 -0.55754,0.0042 -1.40333,-0.135892 -2.39998,-0.324021 -0.99665,-0.188133 -2.14415,-0.424254 -3.303765,-0.611867 -1.159615,-0.187614 -2.348363,-0.32845 -3.633524,-0.403089 -1.285158,-0.07464 -2.666604,-0.08289 -4.210092,-0.0041 -1.543488,0.07876 -3.036634,0.217835 -4.331962,0.427378 -0.647664,0.10477 -1.24603,0.227111 -1.776309,0.368464 -0.530277,0.14135 -0.992209,0.301634 -1.368204,0.482154 -0.375994,0.18052 -0.717532,0.390785 -1.02052,0.621685 -0.302986,0.230901 -0.567776,0.48244 -0.789585,0.746229 -0.221807,0.263792 -0.4011,0.53939 -0.533557,0.818579 -0.132456,0.279191 -0.218021,0.562153 -0.252955,0.839251 -0.03493,0.277096 -0.01791,0.544674 0.04404,0.800491 0.06194,0.255818 0.168898,0.499599 0.314914,0.729176 0.146013,0.229578 0.3306,0.445011 0.547895,0.643391 0.217292,0.198379 0.467212,0.379876 0.742986,0.542102 0.275775,0.162223 0.654932,0.324754 1.09989,0.484739 0.444957,0.159985 0.95582,0.317363 1.494166,0.469236 1.076699,0.303743 2.264233,0.585088 3.259726,0.821161 0.995494,0.236076 2.155151,0.453985 3.382616,0.704371 1.227468,0.250385 2.523006,0.533632 3.789699,0.900747 0.633347,0.183557 1.351383,0.391531 2.099414,0.630986 0.74803,0.239458 1.525791,0.510039 2.277608,0.818579 0.751809,0.30854 1.477749,0.655156 2.122459,1.045963 0.32235,0.195403 0.62438,0.401694 0.89916,0.620135 0.27478,0.218441 0.52247,0.448842 0.73582,0.691967 0.21335,0.243127 0.41046,0.502765 0.59091,0.77672 0.18044,0.273955 0.34428,0.56224 0.49105,0.863538 0.29355,0.602598 0.51907,1.256683 0.67335,1.947742 0.15429,0.691059 0.23739,1.419349 0.2463,2.170991 0.009,0.751643 -0.0566,1.526696 -0.19919,2.311037 -0.0713,0.392171 -0.15811,0.781932 -0.26524,1.168439 -0.10713,0.386504 -0.23447,0.769619 -0.3866,1.147767 -0.15213,0.378148 -0.3288,0.751209 -0.5351,1.11831 -0.20629,0.367104 -0.44213,0.728253 -0.71175,1.081619 -0.26962,0.353367 -0.57344,0.699204 -0.91555,1.036144 -0.3421,0.336941 -0.72273,0.66509 -1.14648,0.982914 -0.42375,0.317824 -0.89052,0.625401 -1.40507,0.921417 -0.514557,0.296019 -1.076785,0.580132 -1.691308,0.851653 -0.614525,0.271523 -1.209939,0.51019 -1.791161,0.717806 -0.581219,0.20762 -1.148163,0.384184 -1.706157,0.531767 -0.557994,0.147584 -1.107037,0.266192 -1.65188,0.357611 -0.544843,0.09142 -1.085534,0.155699 -1.627302,0.194826 C 90.610784,67.1912 90.067873,67.20529 89.519105,67.196 88.970337,67.1867 88.41566,67.15424 87.849815,67.1004 86.717823,66.992668 85.541984,66.79975 84.281533,66.537072 83.021079,66.274394 81.996369,65.995774 81.150334,65.707123 80.304298,65.418476 79.63704,65.11989 79.090348,64.81723 78.543654,64.514572 78.117852,64.207757 77.755427,63.903046 77.393002,63.598338 77.093679,63.29555 76.800449,63.000751 76.213989,62.411149 75.813709,62.01879 75.461945,61.636969 75.11018,61.255148 74.806882,60.883938 74.415823,60.336753 74.220293,60.06316 74.017908,59.766186 73.839252,59.468047 73.660596,59.169906 73.50586,58.870614 73.406057,58.591589 c -0.09981,-0.279027 -0.144459,-0.537731 -0.103435,-0.753981 0.0205,-0.108128 0.06221,-0.205669 0.12955,-0.289915 0.06734,-0.08425 0.160225,-0.154902 0.28214,-0.209813 0.243824,-0.109816 0.60273,-0.145091 1.046635,-0.12816 0.443902,0.01693 0.972614,0.08579 1.556639,0.183457 1.168047,0.195326 2.556615,0.506139 3.92539,0.748295 1.368775,0.242159 2.739551,0.424862 4.152232,0.529701 0.70634,0.05242 1.422978,0.08547 2.155227,0.09664 0.73225,0.01117 1.479801,5.29e-4 2.247909,-0.03411 0.768111,-0.0347 1.519534,-0.087 2.238694,-0.15762 0.719158,-0.07062 1.406184,-0.159453 2.046159,-0.268208 0.639974,-0.108755 1.232955,-0.237454 1.76351,-0.386551 0.530552,-0.149098 0.998813,-0.318928 1.389709,-0.510577 0.390897,-0.191651 0.745155,-0.409737 1.058412,-0.648041 0.313255,-0.238304 0.585527,-0.496791 0.811602,-0.767936 0.226075,-0.271143 0.406255,-0.555282 0.535607,-0.845451 0.12935,-0.290169 0.207846,-0.586244 0.230936,-0.881625 0.0231,-0.295384 -0.0042,-0.584945 -0.07578,-0.864057 -0.07156,-0.279109 -0.187256,-0.548021 -0.341029,-0.801007 -0.153771,-0.252986 -0.34583,-0.490462 -0.569401,-0.707471 -0.223571,-0.217007 -0.478936,-0.413297 -0.759886,-0.584477 -0.280948,-0.17118 -0.68484,-0.345106 -1.169014,-0.518331 -0.484175,-0.173223 -1.048513,-0.345723 -1.649322,-0.513677 -1.201617,-0.335912 -2.54993,-0.65408 -3.698552,-0.925037 -1.148623,-0.270957 -2.395514,-0.513148 -3.628401,-0.77 C 85.748699,48.326783 84.52988,48.055418 83.436649,47.725783 82.343418,47.396147 80.93172,46.970351 79.575265,46.471557 78.897034,46.222162 78.232363,45.954692 77.628443,45.671585 77.024519,45.388475 76.48138,45.089693 76.045175,44.77859 75.60897,44.467486 75.21531,44.11286 74.857214,43.729526 74.49912,43.346194 74.176579,42.934435 73.88278,42.509412 73.588979,42.084386 73.323715,41.645887 73.080394,41.209711 72.837073,40.773533 72.615749,40.339204 72.409093,39.922412 72.202437,39.50562 72.014282,39.110546 71.888335,38.710564 c -0.06297,-0.199991 -0.110206,-0.401038 -0.136717,-0.6067 -0.02651,-0.205658 -0.03207,-0.415659 -0.01127,-0.633571 0.02082,-0.217909 0.06797,-0.443854 0.14696,-0.680597 0.07899,-0.236743 0.189421,-0.484591 0.337442,-0.746747 0.148022,-0.262155 0.333295,-0.538382 0.561208,-0.832531 0.227913,-0.294148 0.498575,-0.606265 0.817236,-0.938989 0.637321,-0.665449 1.315009,-1.299052 2.066642,-1.89348 0.375819,-0.297215 0.770386,-0.584545 1.18745,-0.860955 0.417064,-0.276408 0.856386,-0.542269 1.323142,-0.79584 0.466758,-0.253571 0.96057,-0.495309 1.485464,-0.724008 0.524895,-0.228697 1.080883,-0.444183 1.672364,-0.645973 0.591478,-0.201793 1.218352,-0.389404 1.884863,-0.562256 0.666512,-0.172855 1.37298,-0.330972 2.12297,-0.472853 0.749986,-0.141882 1.453277,-0.248862 2.116821,-0.324021 0.663546,-0.07516 1.287329,-0.118667 1.877696,-0.13333 z"
               style="fill:#00aa44;fill-opacity:1;stroke:none;stroke-width:0.25821704;stroke-opacity:1" />
            <path
               id="path79"
               d="M 88.859283,27.214807 A 20.942634,20.32067 0 0 0 67.916352,47.535601 20.942634,20.32067 0 0 0 88.859283,67.856395 20.942634,20.32067 0 0 0 109.80169,47.535601 20.942634,20.32067 0 0 0 88.859283,27.214807 Z m 0,0.919537 a 19.995004,19.401183 0 0 1 1.995724,0.09725 19.995004,19.401183 0 0 1 1.976551,0.289696 19.995004,19.401183 0 0 1 1.936646,0.47953 19.995004,19.401183 0 0 1 1.877048,0.665208 19.995004,19.401183 0 0 1 1.799832,0.843601 19.995004,19.401183 0 0 1 1.703956,1.013673 19.995004,19.401183 0 0 1 1.59099,1.173343 19.995004,19.401183 0 0 1 1.46245,1.322091 19.995004,19.401183 0 0 1 1.31943,1.4568 19.995004,19.401183 0 0 1 1.1624,1.577461 19.995004,19.401183 0 0 1 0.9945,1.682518 19.995004,19.401183 0 0 1 0.81621,1.769898 19.995004,19.401183 0 0 1 0.63018,1.840632 19.995004,19.401183 0 0 1 0.43791,1.892121 19.995004,19.401183 0 0 1 0.24098,1.925407 19.995004,19.401183 0 0 1 0.0498,1.372021 19.995004,19.401183 0 0 1 -0.0995,1.93685 19.995004,19.401183 0 0 1 -0.29902,1.917605 19.995004,19.401183 0 0 1 -0.4944,1.879118 19.995004,19.401183 0 0 1 -0.6851,1.821908 19.995004,19.401183 0 0 1 -0.86961,1.745972 19.995004,19.401183 0 0 1 -1.04476,1.653395 19.995004,19.401183 0 0 1 -1.20956,1.543654 19.995004,19.401183 0 0 1 -1.36244,1.41935 19.995004,19.401183 0 0 1 -1.50133,1.279966 19.995004,19.401183 0 0 1 -1.625702,1.127573 19.995004,19.401183 0 0 1 -1.733497,0.965305 19.995004,19.401183 0 0 1 -1.824708,0.79211 19.995004,19.401183 0 0 1 -1.89674,0.611636 19.995004,19.401183 0 0 1 -1.95012,0.424401 19.995004,19.401183 0 0 1 -1.983807,0.234045 19.995004,19.401183 0 0 1 -1.414263,0.04836 19.995004,19.401183 0 0 1 -1.996243,-0.09674 19.995004,19.401183 0 0 1 -1.97655,-0.289695 19.995004,19.401183 0 0 1 -1.936129,-0.480053 19.995004,19.401183 0 0 1 -1.877567,-0.665204 19.995004,19.401183 0 0 1 -1.799831,-0.843082 19.995004,19.401183 0 0 1 -1.703959,-1.013674 19.995004,19.401183 0 0 1 -1.590982,-1.173862 19.995004,19.401183 0 0 1 -1.462461,-1.322092 19.995004,19.401183 0 0 1 -1.318908,-1.456799 19.995004,19.401183 0 0 1 -1.16292,-1.577461 19.995004,19.401183 0 0 1 -0.994494,-1.681999 19.995004,19.401183 0 0 1 -0.81622,-1.770418 19.995004,19.401183 0 0 1 -0.630175,-1.840113 19.995004,19.401183 0 0 1 -0.437908,-1.892639 19.995004,19.401183 0 0 1 -0.240982,-1.924886 19.995004,19.401183 0 0 1 -0.04975,-1.372542 19.995004,19.401183 0 0 1 0.0995,-1.93685 19.995004,19.401183 0 0 1 0.299025,-1.917604 19.995004,19.401183 0 0 1 0.494396,-1.879119 19.995004,19.401183 0 0 1 0.685107,-1.821386 19.995004,19.401183 0 0 1 0.869598,-1.746494 19.995004,19.401183 0 0 1 1.044762,-1.653395 19.995004,19.401183 0 0 1 1.209564,-1.543655 19.995004,19.401183 0 0 1 1.362439,-1.41883 19.995004,19.401183 0 0 1 1.501329,-1.279963 19.995004,19.401183 0 0 1 1.625704,-1.128096 19.995004,19.401183 0 0 1 1.734014,-0.964784 19.995004,19.401183 0 0 1 1.824189,-0.792111 19.995004,19.401183 0 0 1 1.896743,-0.611635 19.995004,19.401183 0 0 1 1.95012,-0.424924 19.995004,19.401183 0 0 1 1.983804,-0.233523 19.995004,19.401183 0 0 1 1.414785,-0.04889 z"
               style="fill:#55ff99;stroke:none;stroke-width:0.28881028;stroke-opacity:0.91623038" />
          </g>
        </g>
      </g>
    </g>
  </g>
</svg>
