<?xml version="1.0" encoding="UTF-8" standalone="no"?>
<svg
   xmlns:dc="http://purl.org/dc/elements/1.1/"
   xmlns:cc="http://creativecommons.org/ns#"
   xmlns:rdf="http://www.w3.org/1999/02/22-rdf-syntax-ns#"
   xmlns:svg="http://www.w3.org/2000/svg"
   xmlns="http://www.w3.org/2000/svg"
   xmlns:sodipodi="http://sodipodi.sourceforge.net/DTD/sodipodi-0.dtd"
   xmlns:inkscape="http://www.inkscape.org/namespaces/inkscape"
   id="svg8"
   version="1.1"
   viewBox="0 0 210 297"
   height="297mm"
   width="210mm"
   sodipodi:docname="scuffed_utils_dark_logo_python_scheme.svg"
   inkscape:version="0.92.5 (2060ec1f9f, 2020-04-08)">
  <sodipodi:namedview
     pagecolor="#ffffff"
     bordercolor="#666666"
     borderopacity="1"
     objecttolerance="10"
     gridtolerance="10"
     guidetolerance="10"
     inkscape:pageopacity="0"
     inkscape:pageshadow="2"
     inkscape:window-width="1366"
     inkscape:window-height="718"
     id="namedview30"
     showgrid="false"
     inkscape:snap-global="false"
     inkscape:zoom="0.2973261"
     inkscape:cx="925.85897"
     inkscape:cy="787.95635"
     inkscape:window-x="0"
     inkscape:window-y="0"
     inkscape:window-maximized="1"
     inkscape:current-layer="svg8" />
  <defs
     id="defs2" />
  <metadata
     id="metadata5">
    <rdf:RDF>
      <cc:Work
         rdf:about="">
        <dc:format>image/svg+xml</dc:format>
        <dc:type
           rdf:resource="http://purl.org/dc/dcmitype/StillImage" />
        <dc:title></dc:title>
      </cc:Work>
    </rdf:RDF>
  </metadata>
  <g
     id="g1051"
     transform="matrix(2.3780645,0,0,2.3780645,9.0282022,-25.961257)">
    <circle
       r="36.528755"
       cy="69.020073"
       cx="42.449089"
       id="path1249"
       style="fill:#333333;fill-opacity:1;stroke:none;stroke-width:0.25273949;stroke-opacity:1" />
    <path
       inkscape:connector-curvature="0"
       style="fill:#b3b3b3;fill-opacity:1;stroke:none;stroke-width:0.26458332;stroke-opacity:1"
       d="m 49.646694,91.112399 a 4.8481577,3.6595997 0 0 1 -0.34313,-0.0093 4.8481577,3.6595997 0 0 1 -0.481108,-0.04392 4.8481577,3.6595997 0 0 1 -0.472839,-0.0801 4.8481577,3.6595997 0 0 1 -0.45992,-0.115755 4.8481577,3.6595997 0 0 1 -0.442352,-0.149344 4.8481577,3.6595997 0 0 1 -0.08836,-0.03824 4.0925646,5.5541949 0 0 0 0.04806,-0.0098 4.0925646,5.5541949 0 0 0 0.396359,-0.137459 4.0925646,5.5541949 0 0 0 0.383955,-0.190169 4.0925646,5.5541949 0 0 0 0.368454,-0.241848 4.0925646,5.5541949 0 0 0 0.348813,-0.289904 4.0925646,5.5541949 0 0 0 0.325562,-0.335896 4.0925646,5.5541949 0 0 0 0.299725,-0.378788 4.0925646,5.5541949 0 0 0 0.269751,-0.417029 4.0925646,5.5541949 0 0 0 0.237712,-0.451651 4.0925646,5.5541949 0 0 0 0.203605,-0.481627 4.0925646,5.5541949 0 0 0 0.167431,-0.506428 4.0925646,5.5541949 0 0 0 0.128675,-0.5271 4.0925646,5.5541949 0 0 0 0.08992,-0.541568 4.0925646,5.5541949 0 0 0 0.04909,-0.551389 4.0925646,5.5541949 0 0 0 0.01033,-0.39274 4.0925646,5.5541949 0 0 0 -0.02067,-0.554487 4.0925646,5.5541949 0 0 0 -0.06098,-0.548804 4.0925646,5.5541949 0 0 0 -0.04858,-0.258384 4.0925646,5.5541949 0 0 0 -0.05271,-0.279569 4.0925646,5.5541949 0 0 0 -0.140041,-0.521415 4.0925646,5.5541949 0 0 0 -0.178284,-0.500226 4.0925646,5.5541949 0 0 0 -0.213424,-0.473358 4.0925646,5.5541949 0 0 0 -0.247531,-0.441833 4.0925646,5.5541949 0 0 0 -0.04341,-0.06305 4.0925646,5.5541949 0 0 1 0.01344,-0.001 4.0925646,5.5541949 0 0 1 0.289904,0.01395 4.0925646,5.5541949 0 0 1 0.405662,0.06666 4.0925646,5.5541949 0 0 1 0.399457,0.121957 4.0925646,5.5541949 0 0 1 0.388091,0.174667 4.0925646,5.5541949 0 0 1 0.373621,0.226859 4.0925646,5.5541949 0 0 1 0.354499,0.276469 4.0925646,5.5541949 0 0 1 0.332796,0.322977 4.0925646,5.5541949 0 0 1 0.307475,0.366387 4.0925646,5.5541949 0 0 1 0.279053,0.406175 4.0925646,5.5541949 0 0 1 0.247531,0.441836 4.0925646,5.5541949 0 0 1 0.213424,0.473355 4.0925646,5.5541949 0 0 1 0.178284,0.500227 4.0925646,5.5541949 0 0 1 0.08475,0.316261 4.0925646,5.5541949 0 0 1 0.05529,0.205156 4.0925646,5.5541949 0 0 1 0.101288,0.53795 4.0925646,5.5541949 0 0 1 0.06098,0.548804 4.0925646,5.5541949 0 0 1 0.02067,0.554488 4.0925646,5.5541949 0 0 1 -0.01033,0.392742 4.0925646,5.5541949 0 0 1 -0.04909,0.551386 4.0925646,5.5541949 0 0 1 -0.08992,0.541571 4.0925646,5.5541949 0 0 1 -0.128675,0.527097 4.0925646,5.5541949 0 0 1 -0.167431,0.506431 4.0925646,5.5541949 0 0 1 -0.108006,0.254765 4.8481577,3.6595997 0 0 1 -0.109037,0.09405 4.8481577,3.6595997 0 0 1 -0.3545,0.249081 4.8481577,3.6595997 0 0 1 -0.386021,0.221692 4.8481577,3.6595997 0 0 1 -0.412896,0.191204 4.8481577,3.6595997 0 0 1 -0.436666,0.159162 4.8481577,3.6595997 0 0 1 -0.455268,0.125058 4.8481577,3.6595997 0 0 1 -0.469223,0.09095 4.8481577,3.6595997 0 0 1 -0.479041,0.05426 4.8481577,3.6595997 0 0 1 -0.484209,0.01861 z"
       id="path1288" />
    <path
       inkscape:connector-curvature="0"
       style="fill:#b3b3b3;fill-opacity:1;stroke:none;stroke-width:0.26458332;stroke-opacity:1"
       d="m 44.027688,43.764471 a 4.8481577,3.6595997 0 0 0 -0.34313,0.0093 4.8481577,3.6595997 0 0 0 -0.481108,0.04392 4.8481577,3.6595997 0 0 0 -0.472839,0.0801 4.8481577,3.6595997 0 0 0 -0.45992,0.115755 4.8481577,3.6595997 0 0 0 -0.442352,0.149344 4.8481577,3.6595997 0 0 0 -0.08836,0.03824 4.0925646,5.5541949 0 0 1 0.04806,0.0098 4.0925646,5.5541949 0 0 1 0.396359,0.137459 4.0925646,5.5541949 0 0 1 0.383955,0.190169 4.0925646,5.5541949 0 0 1 0.368454,0.241848 4.0925646,5.5541949 0 0 1 0.348813,0.289904 4.0925646,5.5541949 0 0 1 0.325562,0.335896 4.0925646,5.5541949 0 0 1 0.299725,0.378788 4.0925646,5.5541949 0 0 1 0.269751,0.417029 4.0925646,5.5541949 0 0 1 0.237712,0.451651 4.0925646,5.5541949 0 0 1 0.203605,0.481627 4.0925646,5.5541949 0 0 1 0.167431,0.506428 4.0925646,5.5541949 0 0 1 0.128675,0.5271 4.0925646,5.5541949 0 0 1 0.08992,0.541568 4.0925646,5.5541949 0 0 1 0.04909,0.551389 4.0925646,5.5541949 0 0 1 0.01033,0.39274 4.0925646,5.5541949 0 0 1 -0.02067,0.554487 4.0925646,5.5541949 0 0 1 -0.06098,0.548804 4.0925646,5.5541949 0 0 1 -0.04858,0.258384 4.0925646,5.5541949 0 0 1 -0.05271,0.279569 4.0925646,5.5541949 0 0 1 -0.140041,0.521415 4.0925646,5.5541949 0 0 1 -0.178284,0.500226 4.0925646,5.5541949 0 0 1 -0.213424,0.473358 4.0925646,5.5541949 0 0 1 -0.247531,0.441833 4.0925646,5.5541949 0 0 1 -0.04341,0.06305 4.0925646,5.5541949 0 0 0 0.01344,0.001 4.0925646,5.5541949 0 0 0 0.289904,-0.01395 4.0925646,5.5541949 0 0 0 0.405662,-0.06666 4.0925646,5.5541949 0 0 0 0.399457,-0.121957 4.0925646,5.5541949 0 0 0 0.388091,-0.174667 4.0925646,5.5541949 0 0 0 0.373621,-0.226859 4.0925646,5.5541949 0 0 0 0.354499,-0.276469 4.0925646,5.5541949 0 0 0 0.332796,-0.322977 4.0925646,5.5541949 0 0 0 0.307475,-0.366387 4.0925646,5.5541949 0 0 0 0.279053,-0.406175 4.0925646,5.5541949 0 0 0 0.247531,-0.441836 4.0925646,5.5541949 0 0 0 0.213424,-0.473355 4.0925646,5.5541949 0 0 0 0.178284,-0.500227 4.0925646,5.5541949 0 0 0 0.08475,-0.316261 4.0925646,5.5541949 0 0 0 0.05529,-0.205156 4.0925646,5.5541949 0 0 0 0.101288,-0.53795 4.0925646,5.5541949 0 0 0 0.06098,-0.548804 4.0925646,5.5541949 0 0 0 0.02067,-0.554488 4.0925646,5.5541949 0 0 0 -0.01033,-0.392742 4.0925646,5.5541949 0 0 0 -0.04909,-0.551386 4.0925646,5.5541949 0 0 0 -0.08992,-0.541571 4.0925646,5.5541949 0 0 0 -0.128675,-0.527097 4.0925646,5.5541949 0 0 0 -0.167431,-0.506431 4.0925646,5.5541949 0 0 0 -0.108006,-0.254765 4.8481577,3.6595997 0 0 0 -0.109037,-0.09405 4.8481577,3.6595997 0 0 0 -0.3545,-0.249081 4.8481577,3.6595997 0 0 0 -0.386021,-0.221692 4.8481577,3.6595997 0 0 0 -0.412896,-0.191204 4.8481577,3.6595997 0 0 0 -0.436666,-0.159162 4.8481577,3.6595997 0 0 0 -0.455268,-0.125058 4.8481577,3.6595997 0 0 0 -0.469223,-0.09095 4.8481577,3.6595997 0 0 0 -0.479041,-0.05426 4.8481577,3.6595997 0 0 0 -0.484209,-0.01861 z"
       id="path1286" />
    <path
       inkscape:connector-curvature="0"
       id="path1435"
       d="m 18.050572,60.259835 a 15.926908,16.657724 0 0 0 -1.059883,0.974101 15.926908,16.657724 0 0 0 -1.085205,1.218014 15.926908,16.657724 0 0 0 -0.96325,1.325499 15.926908,16.657724 0 0 0 -0.83199,1.419554 15.926908,16.657724 0 0 0 -0.692465,1.499647 15.926908,16.657724 0 0 0 -0.546219,1.564246 15.926908,16.657724 0 0 0 -0.393774,1.612823 15.926908,16.657724 0 0 0 -0.237712,1.64641 15.926908,16.657724 0 0 0 -0.07958,1.663464 15.926908,16.657724 0 0 0 0.03979,1.178224 15.926908,16.657724 0 0 0 0.19172,1.652611 15.926908,16.657724 0 0 0 0.348816,1.624709 15.926908,16.657724 0 0 0 0.501779,1.580263 15.926908,16.657724 0 0 0 0.650606,1.519804 15.926908,16.657724 0 0 0 0.792199,1.444358 15.926908,16.657724 0 0 0 0.926042,1.354439 15.926908,16.657724 0 0 0 1.050581,1.251085 15.926908,16.657724 0 0 0 1.164788,1.134816 15.926908,16.657724 0 0 0 1.267622,1.00769 15.926908,16.657724 0 0 0 1.357024,0.87023 15.926908,16.657724 0 0 0 1.433499,0.724503 15.926908,16.657724 0 0 0 1.49552,0.570508 15.926908,16.657724 0 0 0 1.54254,0.41238 15.926908,16.657724 0 0 0 1.57406,0.248563 15.926908,16.657724 0 0 0 1.59008,0.0832 15.926908,16.657724 0 0 0 1.12655,-0.04186 15.926908,16.657724 0 0 0 1.58078,-0.200504 15.926908,16.657724 0 0 0 0.43667,-0.102836 15.926908,16.657724 0 0 0 1.11673,-0.262001 15.926908,16.657724 0 0 0 1.5105,-0.525031 15.926908,16.657724 0 0 0 1.45314,-0.680064 15.926908,16.657724 0 0 0 1.38131,-0.828373 15.926908,16.657724 0 0 0 1.29501,-0.968415 15.926908,16.657724 0 0 0 1.19579,-1.099158 15.926908,16.657724 0 0 0 1.08521,-1.218012 15.926908,16.657724 0 0 0 0.96325,-1.325502 c 0.20505,-0.383058 0.78159,-1.055145 1.01492,-1.420069 0.29993,-0.458362 0.62159,-0.900747 0.96377,-1.325499 0.34208,-0.424844 0.70427,-0.83153 1.0852,-1.218531 0.38084,-0.386828 0.77994,-0.753501 1.1958,-1.098642 0.41595,-0.345358 0.84816,-0.66874 1.29501,-0.968931 0.44677,-0.300024 0.90761,-0.576492 1.38079,-0.828373 0.47324,-0.251881 0.95823,-0.478854 1.45314,-0.680064 0.49499,-0.20125 0.99929,-0.376478 1.51102,-0.525031 0.51166,-0.148622 1.0301,-0.270386 1.55339,-0.364837 0.52323,-0.09434 1.05065,-0.161261 1.58027,-0.200504 0.37493,-0.02785 0.75068,-0.04181 1.12655,-0.04186 0.30785,0.0067 0.61545,0.02273 0.92242,0.04806 -0.0993,-0.08082 -0.19961,-0.160409 -0.30076,-0.238747 -0.43818,-0.313727 -0.89108,-0.60434 -1.35702,-0.870746 -0.46616,-0.266187 -0.94477,-0.507817 -1.43402,-0.723987 -0.48909,-0.216297 -0.98822,-0.406877 -1.49552,-0.571024 -0.50729,-0.164095 -1.02211,-0.301554 -1.54254,-0.411861 -0.52039,-0.110419 -1.04573,-0.193548 -1.57406,-0.249081 -0.52837,-0.05544 -1.05906,-0.08321 -1.59008,-0.0832 -0.14631,0.0034 -0.29257,0.0089 -0.43874,0.01654 a 15.926908,16.657724 0 0 0 -0.68781,0.02532 15.926908,16.657724 0 0 0 -1.58027,0.200504 15.926908,16.657724 0 0 0 -0.43718,0.102836 15.926908,16.657724 0 0 0 -1.11621,0.262001 15.926908,16.657724 0 0 0 -0.83406,0.289904 15.926908,16.657724 0 0 0 -0.67696,0.235127 15.926908,16.657724 0 0 0 -1.45314,0.680064 15.926908,16.657724 0 0 0 -0.95446,0.572574 15.926908,16.657724 0 0 1 -0.83406,0.289904 15.926908,16.657724 0 0 1 -1.5534,0.364837 15.926908,16.657724 0 0 1 -1.58026,0.200504 15.926908,16.657724 0 0 1 -1.12655,0.04186 15.926908,16.657724 0 0 1 -1.59008,-0.0832 15.926908,16.657724 0 0 1 -1.57458,-0.249081 15.926908,16.657724 0 0 1 -1.54254,-0.411861 15.926908,16.657724 0 0 1 -1.495,-0.571024 15.926908,16.657724 0 0 1 -1.43402,-0.723987 15.926908,16.657724 0 0 1 -1.35702,-0.87023 15.926908,16.657724 0 0 1 -1.26762,-1.00769 15.926908,16.657724 0 0 1 -0.27544,-0.268719 15.926908,16.657724 0 0 1 -0.88935,-0.866613 15.926908,16.657724 0 0 1 -1.050583,-1.250569 15.926908,16.657724 0 0 1 -0.926041,-1.354439 15.926908,16.657724 0 0 1 -0.7922,-1.444358 15.926908,16.657724 0 0 1 -0.650089,-1.519804 15.926908,16.657724 0 0 1 -0.502293,-1.580263 15.926908,16.657724 0 0 1 -0.3483,-1.624709 15.926908,16.657724 0 0 1 -0.0016,-0.01188 z M 46.39354,71.043672 c -0.38083,0.387006 -0.77992,0.753849 -1.19579,1.099159 -0.38298,0.31514 -0.77958,0.611727 -1.18856,0.888833 a 15.926908,16.657724 0 0 0 1.18856,-0.888833 15.926908,16.657724 0 0 0 1.19579,-1.099159 z m -2.37918,2.139921 c -1e-5,0.555358 -0.0266,1.110366 -0.0796,1.662949 -0.0531,0.552614 -0.13263,1.102103 -0.23823,1.646409 -0.10548,0.544134 -0.2369,1.082416 -0.39378,1.612823 -0.15685,0.530604 -0.33898,1.052672 -0.5457,1.564246 a 15.926908,16.657724 0 0 0 0.5457,-1.564246 15.926908,16.657724 0 0 0 0.39378,-1.612823 15.926908,16.657724 0 0 0 0.23823,-1.646409 15.926908,16.657724 0 0 0 0.0796,-1.662949 z m -1.26091,6.494695 c -0.2059,0.508733 -0.43565,1.006547 -0.68884,1.491383 -0.20507,0.382881 -0.42452,0.757139 -0.65785,1.121894 a 15.926908,16.657724 0 0 0 0.65785,-1.121894 15.926908,16.657724 0 0 0 0.68884,-1.491383 z"
       style="fill:#ff5555;fill-opacity:1;stroke:none;stroke-width:0.31753197;stroke-opacity:1" />
    <path
       inkscape:connector-curvature="0"
       id="path1205"
       d="m 42.449087,32.497241 a 36.523048,36.523048 0 0 0 -2.583304,0.09147 36.523048,36.523048 0 0 0 -3.624585,0.439766 36.523048,36.523048 0 0 0 -3.562057,0.799436 36.523048,36.523048 0 0 0 -3.464388,1.15135 36.523048,36.523048 0 0 0 -3.332612,1.491382 36.523048,36.523048 0 0 0 -3.166732,1.816426 36.523048,36.523048 0 0 0 -2.969328,2.123384 36.523048,36.523048 0 0 0 -2.742986,2.409672 36.523048,36.523048 0 0 0 -2.488218,2.671156 36.523048,36.523048 0 0 0 -2.209687,2.906282 36.523048,36.523048 0 0 0 -1.27899,2.086178 36.523048,36.523048 0 0 0 -0.628901,1.026293 36.523048,36.523048 0 0 0 -1.588019,3.287138 36.523048,36.523048 0 0 0 -1.2521194,3.429764 36.523048,36.523048 0 0 0 -0.9033034,3.537252 36.523048,36.523048 0 0 0 -0.5451869,3.609599 36.523048,36.523048 0 0 0 -0.1824178,3.646289 36.523048,36.523048 0 0 0 0.091467,2.583823 36.523048,36.523048 0 0 0 0.4397663,3.624067 36.523048,36.523048 0 0 0 0.7994332,3.562056 36.523048,36.523048 0 0 0 1.1513529,3.464388 36.523048,36.523048 0 0 0 1.4913822,3.332615 36.523048,36.523048 0 0 0 1.8164259,3.166732 36.523048,36.523048 0 0 0 2.123384,2.969326 36.523048,36.523048 0 0 0 1.53634,1.749248 36.523048,36.523048 0 0 0 0.873332,0.993738 36.523048,36.523048 0 0 0 2.671156,2.488221 36.523048,36.523048 0 0 0 2.906281,2.209683 36.523048,36.523048 0 0 0 3.112471,1.907895 36.523048,36.523048 0 0 0 3.287139,1.58801 36.523048,36.523048 0 0 0 3.429764,1.25212 36.523048,36.523048 0 0 0 3.537252,0.90331 36.523048,36.523048 0 0 0 3.609599,0.54518 36.523048,36.523048 0 0 0 3.646289,0.18242 36.523048,36.523048 0 0 0 2.583305,-0.0915 36.523048,36.523048 0 0 0 3.624585,-0.43976 36.523048,36.523048 0 0 0 3.562056,-0.79944 36.523048,36.523048 0 0 0 0.155546,-0.0517 24.216218,24.216218 0 0 0 0.637172,-0.45578 24.216218,24.216218 0 0 0 1.819011,-1.59732 24.216218,24.216218 0 0 0 1.650026,-1.77147 24.216218,24.216218 0 0 0 1.464511,-1.927009 24.216218,24.216218 0 0 0 1.265555,-2.063438 24.216218,24.216218 0 0 0 1.05265,-2.179714 24.216218,24.216218 0 0 0 0.829924,-2.273763 24.216218,24.216218 0 0 0 0.598929,-2.345592 24.216218,24.216218 0 0 0 0.230476,-1.525489 24.216218,24.216218 0 0 0 0.13126,-0.867646 24.216218,24.216218 0 0 0 0.120922,-2.41794 24.216218,24.216218 0 0 0 -0.06046,-1.712558 24.216218,24.216218 0 0 0 -0.291971,-2.403469 24.216218,24.216218 0 0 0 -0.529685,-2.361615 24.216218,24.216218 0 0 0 -0.763259,-2.297018 24.216218,24.216218 0 0 0 -0.105937,-0.236159 24.216218,24.216218 0 0 1 -0.721405,1.977655 24.216218,24.216218 0 0 1 -1.052647,2.179195 24.216218,24.216218 0 0 1 -1.265555,2.063957 24.216218,24.216218 0 0 1 -1.465027,1.927016 24.216218,24.216218 0 0 1 -1.649513,1.770951 24.216218,24.216218 0 0 1 -1.819011,1.597835 24.216218,24.216218 0 0 1 -1.96887,1.407665 24.216218,24.216218 0 0 1 -2.099614,1.204579 24.216218,24.216218 0 0 1 -2.209168,0.988568 24.216218,24.216218 0 0 1 -2.297536,0.763262 24.216218,24.216218 0 0 1 -2.361612,0.530201 24.216218,24.216218 0 0 1 -2.402954,0.291971 24.216218,24.216218 0 0 1 -1.713074,0.06046 24.216218,24.216218 0 0 1 -2.417424,-0.120922 24.216218,24.216218 0 0 1 -2.393651,-0.361736 24.216218,24.216218 0 0 1 -1.866553,-0.476456 26.453825,26.453825 0 0 1 -1.711007,-1.049549 26.453825,26.453825 0 0 1 -2.105298,-1.60042 26.453825,26.453825 0 0 1 -1.934766,-1.802474 26.453825,26.453825 0 0 1 -1.745112,-1.986441 26.453825,26.453825 0 0 1 -1.538406,-2.150774 26.453825,26.453825 0 0 1 -1.315683,-2.293917 26.453825,26.453825 0 0 1 -1.080037,-2.413288 26.453825,26.453825 0 0 1 -0.833541,-2.509409 26.453825,26.453825 0 0 1 -0.579292,-2.580203 26.453825,26.453825 0 0 1 -0.195339,-1.606622 26.453825,26.453825 0 0 1 -0.123505,-1.018542 26.453825,26.453825 0 0 1 -0.06615,-1.871202 26.453825,26.453825 0 0 1 0.132292,-2.641182 26.453825,26.453825 0 0 1 0.394808,-2.614311 26.453825,26.453825 0 0 1 0.381371,-1.493967 26.453825,26.453825 0 0 1 0.272851,-1.068152 26.453825,26.453825 0 0 1 0.906923,-2.484086 26.453825,26.453825 0 0 1 1.150316,-2.380731 26.453825,26.453825 0 0 1 1.381829,-2.254644 26.453825,26.453825 0 0 1 1.600419,-2.104782 26.453825,26.453825 0 0 1 1.802474,-1.934766 26.453825,26.453825 0 0 1 1.986442,-1.745112 26.453825,26.453825 0 0 1 2.15129,-1.538406 26.453825,26.453825 0 0 1 2.2934,-1.315683 26.453825,26.453825 0 0 1 1.533239,-0.686263 24.216218,24.216218 0 0 1 2.205032,-0.267685 24.216218,24.216218 0 0 1 1.713074,-0.06046 24.216218,24.216218 0 0 1 2.417424,0.120923 24.216218,24.216218 0 0 1 2.393654,0.361733 24.216218,24.216218 0 0 1 2.345076,0.598932 24.216218,24.216218 0 0 1 2.274279,0.829921 24.216218,24.216218 0 0 1 2.179195,1.05265 24.216218,24.216218 0 0 1 2.063957,1.265555 24.216218,24.216218 0 0 1 1.927013,1.464511 24.216218,24.216218 0 0 1 1.770951,1.650029 24.216218,24.216218 0 0 1 1.597838,1.819011 24.216218,24.216218 0 0 1 0.031,0.04341 24.216218,24.216218 0 0 0 0.123507,-0.256315 24.216218,24.216218 0 0 0 0.83044,-2.273763 24.216218,24.216218 0 0 0 0.598413,-2.345076 24.216218,24.216218 0 0 0 0.296622,-1.964222 24.216218,24.216218 0 0 0 0.06511,-0.429432 24.216218,24.216218 0 0 0 0.121438,-2.417421 24.216218,24.216218 0 0 0 -0.06098,-1.713074 24.216218,24.216218 0 0 0 -0.291455,-2.402953 24.216218,24.216218 0 0 0 -0.530201,-2.361616 24.216218,24.216218 0 0 0 -0.512111,-1.540989 36.523048,36.523048 0 0 0 -0.366903,-0.177252 36.523048,36.523048 0 0 0 -3.429765,-1.252119 36.523048,36.523048 0 0 0 -3.537252,-0.903304 36.523048,36.523048 0 0 0 -3.609599,-0.545187 36.523048,36.523048 0 0 0 -3.646289,-0.182417 z"
       style="fill:#306998;fill-opacity:1;stroke:none;stroke-width:0.26458332;stroke-opacity:1" />
    <path
       inkscape:connector-curvature="0"
       id="path1290"
       d="m 47.581454,91.67685 a 4.8481577,3.6595997 0 0 1 -0.34313,-0.0093 4.8481577,3.6595997 0 0 1 -0.481108,-0.04392 4.8481577,3.6595997 0 0 1 -0.472839,-0.0801 4.8481577,3.6595997 0 0 1 -0.45992,-0.115755 4.8481577,3.6595997 0 0 1 -0.442352,-0.149344 4.8481577,3.6595997 0 0 1 -0.08836,-0.03824 4.0925646,5.5541949 0 0 0 0.04806,-0.0098 4.0925646,5.5541949 0 0 0 0.396359,-0.137459 4.0925646,5.5541949 0 0 0 0.383955,-0.190169 4.0925646,5.5541949 0 0 0 0.368454,-0.241848 4.0925646,5.5541949 0 0 0 0.348813,-0.289904 4.0925646,5.5541949 0 0 0 0.325562,-0.335896 4.0925646,5.5541949 0 0 0 0.299725,-0.378788 4.0925646,5.5541949 0 0 0 0.269751,-0.417029 4.0925646,5.5541949 0 0 0 0.237712,-0.451651 4.0925646,5.5541949 0 0 0 0.203605,-0.481627 4.0925646,5.5541949 0 0 0 0.167431,-0.506428 4.0925646,5.5541949 0 0 0 0.128675,-0.5271 4.0925646,5.5541949 0 0 0 0.08992,-0.541568 4.0925646,5.5541949 0 0 0 0.04909,-0.551389 4.0925646,5.5541949 0 0 0 0.01033,-0.39274 4.0925646,5.5541949 0 0 0 -0.02067,-0.554487 4.0925646,5.5541949 0 0 0 -0.06098,-0.548804 4.0925646,5.5541949 0 0 0 -0.04858,-0.258384 4.0925646,5.5541949 0 0 0 -0.05271,-0.279569 4.0925646,5.5541949 0 0 0 -0.140041,-0.521415 4.0925646,5.5541949 0 0 0 -0.178284,-0.500226 4.0925646,5.5541949 0 0 0 -0.213424,-0.473358 4.0925646,5.5541949 0 0 0 -0.247531,-0.441833 4.0925646,5.5541949 0 0 0 -0.04341,-0.06305 4.0925646,5.5541949 0 0 1 0.01344,-0.001 4.0925646,5.5541949 0 0 1 0.289904,0.01395 4.0925646,5.5541949 0 0 1 0.405662,0.06666 4.0925646,5.5541949 0 0 1 0.399457,0.121957 4.0925646,5.5541949 0 0 1 0.388091,0.174667 4.0925646,5.5541949 0 0 1 0.373621,0.226859 4.0925646,5.5541949 0 0 1 0.354499,0.276469 4.0925646,5.5541949 0 0 1 0.332796,0.322977 4.0925646,5.5541949 0 0 1 0.307475,0.366387 4.0925646,5.5541949 0 0 1 0.279053,0.406175 4.0925646,5.5541949 0 0 1 0.247531,0.441836 4.0925646,5.5541949 0 0 1 0.213424,0.473355 4.0925646,5.5541949 0 0 1 0.178284,0.500227 4.0925646,5.5541949 0 0 1 0.08475,0.316261 4.0925646,5.5541949 0 0 1 0.05529,0.205156 4.0925646,5.5541949 0 0 1 0.101288,0.53795 4.0925646,5.5541949 0 0 1 0.06098,0.548804 4.0925646,5.5541949 0 0 1 0.02067,0.554488 4.0925646,5.5541949 0 0 1 -0.01033,0.392742 4.0925646,5.5541949 0 0 1 -0.04909,0.551386 4.0925646,5.5541949 0 0 1 -0.08992,0.541571 4.0925646,5.5541949 0 0 1 -0.128675,0.527097 4.0925646,5.5541949 0 0 1 -0.167431,0.506431 4.0925646,5.5541949 0 0 1 -0.108006,0.254765 4.8481577,3.6595997 0 0 1 -0.109037,0.09405 4.8481577,3.6595997 0 0 1 -0.3545,0.249081 4.8481577,3.6595997 0 0 1 -0.386021,0.221692 4.8481577,3.6595997 0 0 1 -0.412896,0.191204 4.8481577,3.6595997 0 0 1 -0.436666,0.159162 4.8481577,3.6595997 0 0 1 -0.455268,0.125058 4.8481577,3.6595997 0 0 1 -0.469223,0.09095 4.8481577,3.6595997 0 0 1 -0.479041,0.05426 4.8481577,3.6595997 0 0 1 -0.484209,0.01861 z"
       style="fill:#c8b7b7;fill-opacity:1;stroke:none;stroke-width:0.26458332;stroke-opacity:1" />
    <path
       inkscape:connector-curvature="0"
       id="path1273"
       d="m 46.573002,43.661118 a 4.8481577,3.6595997 0 0 0 -0.34313,0.0093 4.8481577,3.6595997 0 0 0 -0.481108,0.04392 4.8481577,3.6595997 0 0 0 -0.472839,0.0801 4.8481577,3.6595997 0 0 0 -0.45992,0.115755 4.8481577,3.6595997 0 0 0 -0.442352,0.149344 4.8481577,3.6595997 0 0 0 -0.08836,0.03824 4.0925646,5.5541949 0 0 1 0.04806,0.0098 4.0925646,5.5541949 0 0 1 0.396359,0.137459 4.0925646,5.5541949 0 0 1 0.383955,0.190169 4.0925646,5.5541949 0 0 1 0.368454,0.241848 4.0925646,5.5541949 0 0 1 0.348813,0.289904 4.0925646,5.5541949 0 0 1 0.325562,0.335896 4.0925646,5.5541949 0 0 1 0.299725,0.378788 4.0925646,5.5541949 0 0 1 0.269751,0.417029 4.0925646,5.5541949 0 0 1 0.237712,0.451651 4.0925646,5.5541949 0 0 1 0.203605,0.481627 4.0925646,5.5541949 0 0 1 0.167431,0.506428 4.0925646,5.5541949 0 0 1 0.128675,0.5271 4.0925646,5.5541949 0 0 1 0.08992,0.541568 4.0925646,5.5541949 0 0 1 0.04909,0.551389 4.0925646,5.5541949 0 0 1 0.01033,0.39274 4.0925646,5.5541949 0 0 1 -0.02067,0.554487 4.0925646,5.5541949 0 0 1 -0.06098,0.548804 4.0925646,5.5541949 0 0 1 -0.04858,0.258384 4.0925646,5.5541949 0 0 1 -0.05271,0.279569 4.0925646,5.5541949 0 0 1 -0.140041,0.521415 4.0925646,5.5541949 0 0 1 -0.178284,0.500226 4.0925646,5.5541949 0 0 1 -0.213424,0.473358 4.0925646,5.5541949 0 0 1 -0.247531,0.441833 4.0925646,5.5541949 0 0 1 -0.04341,0.06305 4.0925646,5.5541949 0 0 0 0.01344,0.001 4.0925646,5.5541949 0 0 0 0.289904,-0.01395 4.0925646,5.5541949 0 0 0 0.405662,-0.06666 4.0925646,5.5541949 0 0 0 0.399457,-0.121957 4.0925646,5.5541949 0 0 0 0.388091,-0.174667 4.0925646,5.5541949 0 0 0 0.373621,-0.226859 4.0925646,5.5541949 0 0 0 0.354499,-0.276469 4.0925646,5.5541949 0 0 0 0.332796,-0.322977 4.0925646,5.5541949 0 0 0 0.307475,-0.366387 4.0925646,5.5541949 0 0 0 0.279053,-0.406175 4.0925646,5.5541949 0 0 0 0.247531,-0.441836 4.0925646,5.5541949 0 0 0 0.213424,-0.473355 4.0925646,5.5541949 0 0 0 0.178284,-0.500227 4.0925646,5.5541949 0 0 0 0.08475,-0.316261 4.0925646,5.5541949 0 0 0 0.05529,-0.205156 4.0925646,5.5541949 0 0 0 0.101288,-0.53795 4.0925646,5.5541949 0 0 0 0.06098,-0.548804 4.0925646,5.5541949 0 0 0 0.02067,-0.554488 4.0925646,5.5541949 0 0 0 -0.01033,-0.392742 4.0925646,5.5541949 0 0 0 -0.04909,-0.551386 4.0925646,5.5541949 0 0 0 -0.08992,-0.541571 4.0925646,5.5541949 0 0 0 -0.128675,-0.527097 4.0925646,5.5541949 0 0 0 -0.167431,-0.506431 4.0925646,5.5541949 0 0 0 -0.108006,-0.254765 4.8481577,3.6595997 0 0 0 -0.109037,-0.09405 4.8481577,3.6595997 0 0 0 -0.3545,-0.249081 4.8481577,3.6595997 0 0 0 -0.386021,-0.221692 4.8481577,3.6595997 0 0 0 -0.412896,-0.191204 4.8481577,3.6595997 0 0 0 -0.436666,-0.159162 4.8481577,3.6595997 0 0 0 -0.455268,-0.125058 4.8481577,3.6595997 0 0 0 -0.469223,-0.09095 4.8481577,3.6595997 0 0 0 -0.479041,-0.05426 4.8481577,3.6595997 0 0 0 -0.484209,-0.01861 z"
       style="fill:#c8b7b7;fill-opacity:1;stroke:none;stroke-width:0.26458332;stroke-opacity:1" />
  </g>
</svg>
