<?xml version="1.0" encoding="UTF-8" standalone="no"?>
<svg
   xmlns:dc="http://purl.org/dc/elements/1.1/"
   xmlns:cc="http://creativecommons.org/ns#"
   xmlns:rdf="http://www.w3.org/1999/02/22-rdf-syntax-ns#"
   xmlns:svg="http://www.w3.org/2000/svg"
   xmlns="http://www.w3.org/2000/svg"
   xmlns:sodipodi="http://sodipodi.sourceforge.net/DTD/sodipodi-0.dtd"
   xmlns:inkscape="http://www.inkscape.org/namespaces/inkscape"
   id="svg8"
   version="1.1"
   viewBox="0 0 210 297"
   height="297mm"
   width="210mm"
   sodipodi:docname="scuffed_utils_dark_logo_alien_scheme.svg"
   inkscape:version="0.92.5 (2060ec1f9f, 2020-04-08)">
  <sodipodi:namedview
     pagecolor="#ffffff"
     bordercolor="#666666"
     borderopacity="1"
     objecttolerance="10"
     gridtolerance="10"
     guidetolerance="10"
     inkscape:pageopacity="0"
     inkscape:pageshadow="2"
     inkscape:window-width="1366"
     inkscape:window-height="718"
     id="namedview30"
     showgrid="false"
     inkscape:snap-global="false"
     inkscape:zoom="0.2973261"
     inkscape:cx="902.58261"
     inkscape:cy="715.07129"
     inkscape:window-x="0"
     inkscape:window-y="0"
     inkscape:window-maximized="1"
     inkscape:current-layer="svg8" />
  <defs
     id="defs2" />
  <metadata
     id="metadata5">
    <rdf:RDF>
      <cc:Work
         rdf:about="">
        <dc:format>image/svg+xml</dc:format>
        <dc:type
           rdf:resource="http://purl.org/dc/dcmitype/StillImage" />
        <dc:title></dc:title>
      </cc:Work>
    </rdf:RDF>
  </metadata>
  <g
     id="g950"
     transform="matrix(2.4814194,0,0,2.4814194,-113.21311,-225.09578)">
    <circle
       style="fill:#333333;fill-opacity:1;stroke:none;stroke-width:0.25273949;stroke-opacity:1"
       id="circle1504"
       cx="87.847687"
       cy="147.87961"
       r="36.528755" />
    <path
       inkscape:connector-curvature="0"
       id="path1506"
       d="m 95.267758,169.97157 a 4.8481577,3.6595997 0 0 1 -0.34313,-0.009 4.8481577,3.6595997 0 0 1 -0.481108,-0.0439 4.8481577,3.6595997 0 0 1 -0.472839,-0.0801 4.8481577,3.6595997 0 0 1 -0.45992,-0.11575 4.8481577,3.6595997 0 0 1 -0.442352,-0.14935 4.8481577,3.6595997 0 0 1 -0.08836,-0.0382 4.0925646,5.5541949 0 0 0 0.04806,-0.01 4.0925646,5.5541949 0 0 0 0.396359,-0.13746 4.0925646,5.5541949 0 0 0 0.383955,-0.19016 4.0925646,5.5541949 0 0 0 0.368454,-0.24185 4.0925646,5.5541949 0 0 0 0.348813,-0.28991 4.0925646,5.5541949 0 0 0 0.325562,-0.33589 4.0925646,5.5541949 0 0 0 0.299725,-0.37879 4.0925646,5.5541949 0 0 0 0.269751,-0.41703 4.0925646,5.5541949 0 0 0 0.237712,-0.45165 4.0925646,5.5541949 0 0 0 0.203605,-0.48163 4.0925646,5.5541949 0 0 0 0.167431,-0.50643 4.0925646,5.5541949 0 0 0 0.128675,-0.5271 4.0925646,5.5541949 0 0 0 0.08992,-0.54156 4.0925646,5.5541949 0 0 0 0.04909,-0.55139 4.0925646,5.5541949 0 0 0 0.01033,-0.39274 4.0925646,5.5541949 0 0 0 -0.02067,-0.55449 4.0925646,5.5541949 0 0 0 -0.06098,-0.5488 4.0925646,5.5541949 0 0 0 -0.04858,-0.25839 4.0925646,5.5541949 0 0 0 -0.05271,-0.27957 4.0925646,5.5541949 0 0 0 -0.14004,-0.52141 4.0925646,5.5541949 0 0 0 -0.178284,-0.50023 4.0925646,5.5541949 0 0 0 -0.213424,-0.47336 4.0925646,5.5541949 0 0 0 -0.247532,-0.44183 4.0925646,5.5541949 0 0 0 -0.04341,-0.063 4.0925646,5.5541949 0 0 1 0.01344,-10e-4 4.0925646,5.5541949 0 0 1 0.289904,0.014 4.0925646,5.5541949 0 0 1 0.405661,0.0667 4.0925646,5.5541949 0 0 1 0.399457,0.12196 4.0925646,5.5541949 0 0 1 0.388092,0.17467 4.0925646,5.5541949 0 0 1 0.373621,0.22685 4.0925646,5.5541949 0 0 1 0.354498,0.27648 4.0925646,5.5541949 0 0 1 0.332796,0.32297 4.0925646,5.5541949 0 0 1 0.307475,0.3664 4.0925646,5.5541949 0 0 1 0.279053,0.40616 4.0925646,5.5541949 0 0 1 0.247531,0.44184 4.0925646,5.5541949 0 0 1 0.213424,0.47335 4.0925646,5.5541949 0 0 1 0.178284,0.50023 4.0925646,5.5541949 0 0 1 0.08475,0.31626 4.0925646,5.5541949 0 0 1 0.05529,0.20516 4.0925646,5.5541949 0 0 1 0.101288,0.53795 4.0925646,5.5541949 0 0 1 0.06098,0.5488 4.0925646,5.5541949 0 0 1 0.02067,0.55449 4.0925646,5.5541949 0 0 1 -0.01033,0.39274 4.0925646,5.5541949 0 0 1 -0.04909,0.55139 4.0925646,5.5541949 0 0 1 -0.08992,0.54157 4.0925646,5.5541949 0 0 1 -0.128675,0.52709 4.0925646,5.5541949 0 0 1 -0.167431,0.50644 4.0925646,5.5541949 0 0 1 -0.108006,0.25476 4.8481577,3.6595997 0 0 1 -0.109037,0.0941 4.8481577,3.6595997 0 0 1 -0.3545,0.24908 4.8481577,3.6595997 0 0 1 -0.386021,0.22169 4.8481577,3.6595997 0 0 1 -0.412896,0.19121 4.8481577,3.6595997 0 0 1 -0.436666,0.15916 4.8481577,3.6595997 0 0 1 -0.455268,0.12506 4.8481577,3.6595997 0 0 1 -0.469223,0.091 4.8481577,3.6595997 0 0 1 -0.479041,0.0543 4.8481577,3.6595997 0 0 1 -0.484209,0.0186 z"
       style="fill:#b3b3b3;fill-opacity:1;stroke:none;stroke-width:0.26458332;stroke-opacity:1" />
    <path
       inkscape:connector-curvature="0"
       id="path1508"
       d="m 89.426283,122.624 a 4.8481577,3.6595997 0 0 0 -0.34313,0.009 4.8481577,3.6595997 0 0 0 -0.481108,0.0439 4.8481577,3.6595997 0 0 0 -0.472839,0.0801 4.8481577,3.6595997 0 0 0 -0.45992,0.11576 4.8481577,3.6595997 0 0 0 -0.442352,0.14934 4.8481577,3.6595997 0 0 0 -0.08836,0.0382 4.0925646,5.5541949 0 0 1 0.04806,0.01 4.0925646,5.5541949 0 0 1 0.396359,0.13746 4.0925646,5.5541949 0 0 1 0.383955,0.19017 4.0925646,5.5541949 0 0 1 0.368454,0.24185 4.0925646,5.5541949 0 0 1 0.348813,0.2899 4.0925646,5.5541949 0 0 1 0.325562,0.3359 4.0925646,5.5541949 0 0 1 0.299725,0.37878 4.0925646,5.5541949 0 0 1 0.269751,0.41703 4.0925646,5.5541949 0 0 1 0.237712,0.45165 4.0925646,5.5541949 0 0 1 0.203605,0.48163 4.0925646,5.5541949 0 0 1 0.167431,0.50643 4.0925646,5.5541949 0 0 1 0.128675,0.5271 4.0925646,5.5541949 0 0 1 0.08992,0.54157 4.0925646,5.5541949 0 0 1 0.04909,0.55139 4.0925646,5.5541949 0 0 1 0.01033,0.39274 4.0925646,5.5541949 0 0 1 -0.02067,0.55448 4.0925646,5.5541949 0 0 1 -0.06098,0.54881 4.0925646,5.5541949 0 0 1 -0.04858,0.25838 4.0925646,5.5541949 0 0 1 -0.05271,0.27957 4.0925646,5.5541949 0 0 1 -0.14004,0.52141 4.0925646,5.5541949 0 0 1 -0.178284,0.50023 4.0925646,5.5541949 0 0 1 -0.213425,0.47336 4.0925646,5.5541949 0 0 1 -0.247531,0.44183 4.0925646,5.5541949 0 0 1 -0.04341,0.0631 4.0925646,5.5541949 0 0 0 0.01344,0.001 4.0925646,5.5541949 0 0 0 0.289904,-0.0139 4.0925646,5.5541949 0 0 0 0.405662,-0.0667 4.0925646,5.5541949 0 0 0 0.399457,-0.12196 4.0925646,5.5541949 0 0 0 0.388091,-0.17466 4.0925646,5.5541949 0 0 0 0.373621,-0.22686 4.0925646,5.5541949 0 0 0 0.354499,-0.27647 4.0925646,5.5541949 0 0 0 0.332796,-0.32298 4.0925646,5.5541949 0 0 0 0.307475,-0.36638 4.0925646,5.5541949 0 0 0 0.279053,-0.40618 4.0925646,5.5541949 0 0 0 0.247531,-0.44184 4.0925646,5.5541949 0 0 0 0.213424,-0.47335 4.0925646,5.5541949 0 0 0 0.178284,-0.50023 4.0925646,5.5541949 0 0 0 0.08475,-0.31626 4.0925646,5.5541949 0 0 0 0.05529,-0.20515 4.0925646,5.5541949 0 0 0 0.101288,-0.53795 4.0925646,5.5541949 0 0 0 0.06098,-0.54881 4.0925646,5.5541949 0 0 0 0.02067,-0.55449 4.0925646,5.5541949 0 0 0 -0.01033,-0.39274 4.0925646,5.5541949 0 0 0 -0.04909,-0.55138 4.0925646,5.5541949 0 0 0 -0.08992,-0.54158 4.0925646,5.5541949 0 0 0 -0.128675,-0.52709 4.0925646,5.5541949 0 0 0 -0.167431,-0.50643 4.0925646,5.5541949 0 0 0 -0.108006,-0.25477 4.8481577,3.6595997 0 0 0 -0.109037,-0.0941 4.8481577,3.6595997 0 0 0 -0.3545,-0.24907 4.8481577,3.6595997 0 0 0 -0.386021,-0.22169 4.8481577,3.6595997 0 0 0 -0.412896,-0.19122 4.8481577,3.6595997 0 0 0 -0.436666,-0.15916 4.8481577,3.6595997 0 0 0 -0.455268,-0.12506 4.8481577,3.6595997 0 0 0 -0.469223,-0.091 4.8481577,3.6595997 0 0 0 -0.479041,-0.0543 4.8481577,3.6595997 0 0 0 -0.484209,-0.0186 z"
       style="fill:#b3b3b3;fill-opacity:1;stroke:none;stroke-width:0.26458332;stroke-opacity:1" />
    <path
       inkscape:connector-curvature="0"
       style="fill:#008033;fill-opacity:1;stroke:none;stroke-width:0.31753197;stroke-opacity:1"
       d="m 63.449167,139.11936 a 15.926908,16.657724 0 0 0 -1.059883,0.97411 15.926908,16.657724 0 0 0 -1.085205,1.21801 15.926908,16.657724 0 0 0 -0.96325,1.3255 15.926908,16.657724 0 0 0 -0.83199,1.41955 15.926908,16.657724 0 0 0 -0.692465,1.49965 15.926908,16.657724 0 0 0 -0.546219,1.56425 15.926908,16.657724 0 0 0 -0.393774,1.61282 15.926908,16.657724 0 0 0 -0.237712,1.64641 15.926908,16.657724 0 0 0 -0.07958,1.66346 15.926908,16.657724 0 0 0 0.03979,1.17823 15.926908,16.657724 0 0 0 0.19172,1.65261 15.926908,16.657724 0 0 0 0.348816,1.62471 15.926908,16.657724 0 0 0 0.501779,1.58026 15.926908,16.657724 0 0 0 0.650606,1.5198 15.926908,16.657724 0 0 0 0.792199,1.44436 15.926908,16.657724 0 0 0 0.926042,1.35444 15.926908,16.657724 0 0 0 1.050581,1.25109 15.926908,16.657724 0 0 0 1.164788,1.13481 15.926908,16.657724 0 0 0 1.267622,1.00769 15.926908,16.657724 0 0 0 1.357024,0.87023 15.926908,16.657724 0 0 0 1.433499,0.7245 15.926908,16.657724 0 0 0 1.49552,0.57051 15.926908,16.657724 0 0 0 1.54254,0.41238 15.926908,16.657724 0 0 0 1.57406,0.24857 15.926908,16.657724 0 0 0 1.59008,0.0832 15.926908,16.657724 0 0 0 1.12655,-0.0419 15.926908,16.657724 0 0 0 1.58078,-0.20051 15.926908,16.657724 0 0 0 0.43667,-0.10283 15.926908,16.657724 0 0 0 1.11673,-0.26201 15.926908,16.657724 0 0 0 1.5105,-0.52503 15.926908,16.657724 0 0 0 1.45314,-0.68006 15.926908,16.657724 0 0 0 1.38131,-0.82837 15.926908,16.657724 0 0 0 1.29501,-0.96842 15.926908,16.657724 0 0 0 1.19579,-1.09916 15.926908,16.657724 0 0 0 1.08521,-1.21801 15.926908,16.657724 0 0 0 0.96325,-1.3255 c 0.20505,-0.38306 0.781591,-1.05515 1.014921,-1.42007 0.29993,-0.45836 0.62159,-0.90075 0.963769,-1.3255 0.342081,-0.42484 0.704271,-0.83153 1.0852,-1.21853 0.38084,-0.38682 0.779941,-0.75349 1.1958,-1.09864 0.415951,-0.34536 0.84816,-0.66874 1.29501,-0.96893 0.44677,-0.30003 0.90761,-0.57649 1.38079,-0.82837 0.47324,-0.25189 0.95823,-0.47886 1.45314,-0.68007 0.49499,-0.20125 0.99929,-0.37648 1.51102,-0.52503 0.51166,-0.14861 1.0301,-0.27038 1.55339,-0.36483 0.52323,-0.0943 1.05065,-0.16126 1.58027,-0.2005 0.374925,-0.0279 0.750675,-0.0418 1.126545,-0.0419 0.30786,0.007 0.61545,0.0227 0.92243,0.0481 -0.0993,-0.0808 -0.19962,-0.16042 -0.30076,-0.23876 -0.43818,-0.31371 -0.89108,-0.60434 -1.35702,-0.87074 -0.466165,-0.26619 -0.944774,-0.50782 -1.434024,-0.72398 -0.48909,-0.2163 -0.98822,-0.40688 -1.49552,-0.57103 -0.50729,-0.16409 -1.02211,-0.30155 -1.54254,-0.41186 -0.52039,-0.11041 -1.04573,-0.19355 -1.574061,-0.24908 -0.52837,-0.0554 -1.05906,-0.0832 -1.59008,-0.0832 -0.14631,0.003 -0.292569,0.009 -0.43874,0.0165 a 15.926908,16.657724 0 0 0 -0.68781,0.0253 15.926908,16.657724 0 0 0 -1.58027,0.20051 15.926908,16.657724 0 0 0 -0.437179,0.10283 15.926908,16.657724 0 0 0 -1.116211,0.262 15.926908,16.657724 0 0 0 -0.83406,0.28991 15.926908,16.657724 0 0 0 -0.67696,0.23513 15.926908,16.657724 0 0 0 -1.45314,0.68006 15.926908,16.657724 0 0 0 -0.954459,0.57257 15.926908,16.657724 0 0 1 -0.83406,0.28991 15.926908,16.657724 0 0 1 -1.5534,0.36483 15.926908,16.657724 0 0 1 -1.58026,0.20051 15.926908,16.657724 0 0 1 -1.12655,0.0419 15.926908,16.657724 0 0 1 -1.590081,-0.0832 15.926908,16.657724 0 0 1 -1.574579,-0.24908 15.926908,16.657724 0 0 1 -1.54254,-0.41186 15.926908,16.657724 0 0 1 -1.495,-0.57103 15.926908,16.657724 0 0 1 -1.43402,-0.72398 15.926908,16.657724 0 0 1 -1.35702,-0.87023 15.926908,16.657724 0 0 1 -1.26762,-1.00769 15.926908,16.657724 0 0 1 -0.27544,-0.26872 15.926908,16.657724 0 0 1 -0.88935,-0.86662 15.926908,16.657724 0 0 1 -1.050583,-1.25057 15.926908,16.657724 0 0 1 -0.926041,-1.35443 15.926908,16.657724 0 0 1 -0.7922,-1.44436 15.926908,16.657724 0 0 1 -0.65009,-1.51981 15.926908,16.657724 0 0 1 -0.502293,-1.58026 15.926908,16.657724 0 0 1 -0.3483,-1.62471 15.926908,16.657724 0 0 1 -0.0016,-0.0119 z m 28.342968,10.78384 c -0.38083,0.38701 -0.779919,0.75385 -1.19579,1.09916 -0.38298,0.31514 -0.77958,0.61173 -1.18856,0.88883 a 15.926908,16.657724 0 0 0 1.18856,-0.88883 15.926908,16.657724 0 0 0 1.19579,-1.09916 z m -2.379179,2.13992 c -1.1e-5,0.55536 -0.0266,1.11037 -0.0796,1.66295 -0.0531,0.55262 -0.13263,1.1021 -0.238231,1.64641 -0.10548,0.54414 -0.236899,1.08242 -0.39378,1.61282 -0.156849,0.53061 -0.338979,1.05268 -0.545699,1.56425 a 15.926908,16.657724 0 0 0 0.545699,-1.56425 15.926908,16.657724 0 0 0 0.39378,-1.61282 15.926908,16.657724 0 0 0 0.238231,-1.64641 15.926908,16.657724 0 0 0 0.0796,-1.66295 z m -1.260911,6.4947 c -0.2059,0.50873 -0.43565,1.00654 -0.68884,1.49138 -0.20507,0.38288 -0.42452,0.75714 -0.65785,1.1219 a 15.926908,16.657724 0 0 0 0.65785,-1.1219 15.926908,16.657724 0 0 0 0.68884,-1.49138 z"
       id="path1510" />
    <path
       inkscape:connector-curvature="0"
       style="fill:#00d455;fill-opacity:1;stroke:none;stroke-width:0.26458332;stroke-opacity:1"
       d="m 87.847682,111.35678 a 36.523048,36.523048 0 0 0 -2.583304,0.0915 36.523048,36.523048 0 0 0 -3.624585,0.43978 36.523048,36.523048 0 0 0 -3.562057,0.79943 36.523048,36.523048 0 0 0 -3.464388,1.15135 36.523048,36.523048 0 0 0 -3.332612,1.49139 36.523048,36.523048 0 0 0 -3.166732,1.81642 36.523048,36.523048 0 0 0 -2.969328,2.12339 36.523048,36.523048 0 0 0 -2.742986,2.40967 36.523048,36.523048 0 0 0 -2.488218,2.67115 36.523048,36.523048 0 0 0 -2.209687,2.90629 36.523048,36.523048 0 0 0 -1.27899,2.08617 36.523048,36.523048 0 0 0 -0.628901,1.0263 36.523048,36.523048 0 0 0 -1.588019,3.28713 36.523048,36.523048 0 0 0 -1.252119,3.42977 36.523048,36.523048 0 0 0 -0.903303,3.53725 36.523048,36.523048 0 0 0 -0.545187,3.6096 36.523048,36.523048 0 0 0 -0.182418,3.64628 36.523048,36.523048 0 0 0 0.09147,2.58383 36.523048,36.523048 0 0 0 0.439766,3.62406 36.523048,36.523048 0 0 0 0.799433,3.56206 36.523048,36.523048 0 0 0 1.151353,3.46438 36.523048,36.523048 0 0 0 1.491383,3.33263 36.523048,36.523048 0 0 0 1.816425,3.16672 36.523048,36.523048 0 0 0 2.123384,2.96932 36.523048,36.523048 0 0 0 1.53634,1.74925 36.523048,36.523048 0 0 0 0.873332,0.99374 36.523048,36.523048 0 0 0 2.671156,2.48823 36.523048,36.523048 0 0 0 2.906281,2.20967 36.523048,36.523048 0 0 0 3.112471,1.9079 36.523048,36.523048 0 0 0 3.287139,1.58801 36.523048,36.523048 0 0 0 3.429764,1.25212 36.523048,36.523048 0 0 0 3.537252,0.90331 36.523048,36.523048 0 0 0 3.609599,0.54518 36.523048,36.523048 0 0 0 3.646289,0.18242 36.523048,36.523048 0 0 0 2.583305,-0.0915 36.523048,36.523048 0 0 0 3.624586,-0.43976 36.523048,36.523048 0 0 0 3.562055,-0.79944 36.523048,36.523048 0 0 0 0.155547,-0.0517 24.216218,24.216218 0 0 0 0.637172,-0.45578 24.216218,24.216218 0 0 0 1.81901,-1.59732 24.216218,24.216218 0 0 0 1.65002,-1.77147 24.216218,24.216218 0 0 0 1.46452,-1.92701 24.216218,24.216218 0 0 0 1.26555,-2.06344 24.216218,24.216218 0 0 0 1.05265,-2.17971 24.216218,24.216218 0 0 0 0.82992,-2.27376 24.216218,24.216218 0 0 0 0.59893,-2.3456 24.216218,24.216218 0 0 0 0.23048,-1.52549 24.216218,24.216218 0 0 0 0.13126,-0.86764 24.216218,24.216218 0 0 0 0.12092,-2.41794 24.216218,24.216218 0 0 0 -0.0605,-1.71256 24.216218,24.216218 0 0 0 -0.29197,-2.40347 24.216218,24.216218 0 0 0 -0.52969,-2.36161 24.216218,24.216218 0 0 0 -0.76326,-2.29702 24.216218,24.216218 0 0 0 -0.10593,-0.23616 24.216218,24.216218 0 0 1 -0.72141,1.97765 24.216218,24.216218 0 0 1 -1.05264,2.1792 24.216218,24.216218 0 0 1 -1.26556,2.06396 24.216218,24.216218 0 0 1 -1.46503,1.92701 24.216218,24.216218 0 0 1 -1.649506,1.77095 24.216218,24.216218 0 0 1 -1.819011,1.59784 24.216218,24.216218 0 0 1 -1.96887,1.40766 24.216218,24.216218 0 0 1 -2.099614,1.20459 24.216218,24.216218 0 0 1 -2.209168,0.98856 24.216218,24.216218 0 0 1 -2.297536,0.76326 24.216218,24.216218 0 0 1 -2.361612,0.5302 24.216218,24.216218 0 0 1 -2.402954,0.29197 24.216218,24.216218 0 0 1 -1.713074,0.0605 24.216218,24.216218 0 0 1 -2.417424,-0.12092 24.216218,24.216218 0 0 1 -2.393651,-0.36173 24.216218,24.216218 0 0 1 -1.866553,-0.47646 26.453825,26.453825 0 0 1 -1.711007,-1.04955 26.453825,26.453825 0 0 1 -2.105298,-1.60042 26.453825,26.453825 0 0 1 -1.934766,-1.80247 26.453825,26.453825 0 0 1 -1.745112,-1.98644 26.453825,26.453825 0 0 1 -1.538406,-2.15078 26.453825,26.453825 0 0 1 -1.315683,-2.29391 26.453825,26.453825 0 0 1 -1.080037,-2.41329 26.453825,26.453825 0 0 1 -0.833541,-2.50941 26.453825,26.453825 0 0 1 -0.579292,-2.5802 26.453825,26.453825 0 0 1 -0.195339,-1.60663 26.453825,26.453825 0 0 1 -0.123505,-1.01854 26.453825,26.453825 0 0 1 -0.06615,-1.8712 26.453825,26.453825 0 0 1 0.132292,-2.64118 26.453825,26.453825 0 0 1 0.394808,-2.61431 26.453825,26.453825 0 0 1 0.381371,-1.49397 26.453825,26.453825 0 0 1 0.272851,-1.06815 26.453825,26.453825 0 0 1 0.906923,-2.48409 26.453825,26.453825 0 0 1 1.150316,-2.38073 26.453825,26.453825 0 0 1 1.381829,-2.25464 26.453825,26.453825 0 0 1 1.600419,-2.10479 26.453825,26.453825 0 0 1 1.802474,-1.93476 26.453825,26.453825 0 0 1 1.986442,-1.74511 26.453825,26.453825 0 0 1 2.15129,-1.53841 26.453825,26.453825 0 0 1 2.2934,-1.31568 26.453825,26.453825 0 0 1 1.533239,-0.68626 24.216218,24.216218 0 0 1 2.205032,-0.26769 24.216218,24.216218 0 0 1 1.713074,-0.0605 24.216218,24.216218 0 0 1 2.417424,0.12092 24.216218,24.216218 0 0 1 2.393654,0.36174 24.216218,24.216218 0 0 1 2.345076,0.59893 24.216218,24.216218 0 0 1 2.274279,0.82992 24.216218,24.216218 0 0 1 2.179195,1.05265 24.216218,24.216218 0 0 1 2.063957,1.26555 24.216218,24.216218 0 0 1 1.927013,1.46451 24.216218,24.216218 0 0 1 1.770951,1.65003 24.216218,24.216218 0 0 1 1.59783,1.81902 24.216218,24.216218 0 0 1 0.031,0.0434 24.216218,24.216218 0 0 0 0.12351,-0.25631 24.216218,24.216218 0 0 0 0.83044,-2.27376 24.216218,24.216218 0 0 0 0.59841,-2.34508 24.216218,24.216218 0 0 0 0.29663,-1.96422 24.216218,24.216218 0 0 0 0.0651,-0.42943 24.216218,24.216218 0 0 0 0.12143,-2.41742 24.216218,24.216218 0 0 0 -0.061,-1.71308 24.216218,24.216218 0 0 0 -0.29145,-2.40295 24.216218,24.216218 0 0 0 -0.5302,-2.36162 24.216218,24.216218 0 0 0 -0.51211,-1.54099 36.523048,36.523048 0 0 0 -0.36691,-0.17725 36.523048,36.523048 0 0 0 -3.429757,-1.25212 36.523048,36.523048 0 0 0 -3.537252,-0.9033 36.523048,36.523048 0 0 0 -3.609599,-0.54519 36.523048,36.523048 0 0 0 -3.64629,-0.18242 z"
       id="path1512" />
    <path
       inkscape:connector-curvature="0"
       style="fill:#c8b7b7;fill-opacity:1;stroke:none;stroke-width:0.26458332;stroke-opacity:1"
       d="m 92.980049,170.53638 a 4.8481577,3.6595997 0 0 1 -0.34313,-0.009 4.8481577,3.6595997 0 0 1 -0.481108,-0.0439 4.8481577,3.6595997 0 0 1 -0.472839,-0.0801 4.8481577,3.6595997 0 0 1 -0.45992,-0.11575 4.8481577,3.6595997 0 0 1 -0.442352,-0.14935 4.8481577,3.6595997 0 0 1 -0.08836,-0.0382 4.0925646,5.5541949 0 0 0 0.04806,-0.01 4.0925646,5.5541949 0 0 0 0.396359,-0.13746 4.0925646,5.5541949 0 0 0 0.383955,-0.19017 4.0925646,5.5541949 0 0 0 0.368454,-0.24184 4.0925646,5.5541949 0 0 0 0.348813,-0.28991 4.0925646,5.5541949 0 0 0 0.325562,-0.3359 4.0925646,5.5541949 0 0 0 0.299725,-0.37878 4.0925646,5.5541949 0 0 0 0.269751,-0.41703 4.0925646,5.5541949 0 0 0 0.237712,-0.45165 4.0925646,5.5541949 0 0 0 0.203605,-0.48163 4.0925646,5.5541949 0 0 0 0.167431,-0.50643 4.0925646,5.5541949 0 0 0 0.128676,-0.5271 4.0925646,5.5541949 0 0 0 0.08992,-0.54157 4.0925646,5.5541949 0 0 0 0.04909,-0.55138 4.0925646,5.5541949 0 0 0 0.01033,-0.39275 4.0925646,5.5541949 0 0 0 -0.02067,-0.55448 4.0925646,5.5541949 0 0 0 -0.06098,-0.54881 4.0925646,5.5541949 0 0 0 -0.04858,-0.25838 4.0925646,5.5541949 0 0 0 -0.05271,-0.27957 4.0925646,5.5541949 0 0 0 -0.140041,-0.52141 4.0925646,5.5541949 0 0 0 -0.178284,-0.50023 4.0925646,5.5541949 0 0 0 -0.213424,-0.47336 4.0925646,5.5541949 0 0 0 -0.247531,-0.44183 4.0925646,5.5541949 0 0 0 -0.04341,-0.063 4.0925646,5.5541949 0 0 1 0.01344,-0.001 4.0925646,5.5541949 0 0 1 0.289904,0.014 4.0925646,5.5541949 0 0 1 0.405662,0.0667 4.0925646,5.5541949 0 0 1 0.399456,0.12196 4.0925646,5.5541949 0 0 1 0.388092,0.17467 4.0925646,5.5541949 0 0 1 0.373621,0.22685 4.0925646,5.5541949 0 0 1 0.354498,0.27648 4.0925646,5.5541949 0 0 1 0.332797,0.32297 4.0925646,5.5541949 0 0 1 0.307474,0.36638 4.0925646,5.5541949 0 0 1 0.279053,0.40618 4.0925646,5.5541949 0 0 1 0.247531,0.44184 4.0925646,5.5541949 0 0 1 0.213425,0.47335 4.0925646,5.5541949 0 0 1 0.178283,0.50023 4.0925646,5.5541949 0 0 1 0.08475,0.31626 4.0925646,5.5541949 0 0 1 0.05529,0.20515 4.0925646,5.5541949 0 0 1 0.101288,0.53795 4.0925646,5.5541949 0 0 1 0.06098,0.54881 4.0925646,5.5541949 0 0 1 0.02067,0.55449 4.0925646,5.5541949 0 0 1 -0.01033,0.39274 4.0925646,5.5541949 0 0 1 -0.04909,0.55138 4.0925646,5.5541949 0 0 1 -0.08992,0.54158 4.0925646,5.5541949 0 0 1 -0.128675,0.52709 4.0925646,5.5541949 0 0 1 -0.167431,0.50644 4.0925646,5.5541949 0 0 1 -0.108006,0.25477 4.8481577,3.6595997 0 0 1 -0.109037,0.094 4.8481577,3.6595997 0 0 1 -0.3545,0.24907 4.8481577,3.6595997 0 0 1 -0.386021,0.2217 4.8481577,3.6595997 0 0 1 -0.412896,0.19121 4.8481577,3.6595997 0 0 1 -0.436666,0.15916 4.8481577,3.6595997 0 0 1 -0.455268,0.12506 4.8481577,3.6595997 0 0 1 -0.469223,0.091 4.8481577,3.6595997 0 0 1 -0.479041,0.0543 4.8481577,3.6595997 0 0 1 -0.484209,0.0186 z"
       id="path1514" />
    <path
       inkscape:connector-curvature="0"
       style="fill:#c8b7b7;fill-opacity:1;stroke:none;stroke-width:0.26458332;stroke-opacity:1"
       d="m 91.971597,122.52066 a 4.8481577,3.6595997 0 0 0 -0.34313,0.009 4.8481577,3.6595997 0 0 0 -0.481108,0.0439 4.8481577,3.6595997 0 0 0 -0.472839,0.0801 4.8481577,3.6595997 0 0 0 -0.459919,0.11575 4.8481577,3.6595997 0 0 0 -0.442352,0.14935 4.8481577,3.6595997 0 0 0 -0.08836,0.0382 4.0925646,5.5541949 0 0 1 0.04806,0.01 4.0925646,5.5541949 0 0 1 0.396359,0.13746 4.0925646,5.5541949 0 0 1 0.383955,0.19016 4.0925646,5.5541949 0 0 1 0.368454,0.24185 4.0925646,5.5541949 0 0 1 0.348813,0.28991 4.0925646,5.5541949 0 0 1 0.325562,0.33589 4.0925646,5.5541949 0 0 1 0.299725,0.37879 4.0925646,5.5541949 0 0 1 0.269751,0.41703 4.0925646,5.5541949 0 0 1 0.237712,0.45165 4.0925646,5.5541949 0 0 1 0.203606,0.48163 4.0925646,5.5541949 0 0 1 0.167431,0.50643 4.0925646,5.5541949 0 0 1 0.128675,0.5271 4.0925646,5.5541949 0 0 1 0.08992,0.54156 4.0925646,5.5541949 0 0 1 0.04909,0.55139 4.0925646,5.5541949 0 0 1 0.01033,0.39274 4.0925646,5.5541949 0 0 1 -0.02067,0.55449 4.0925646,5.5541949 0 0 1 -0.06098,0.5488 4.0925646,5.5541949 0 0 1 -0.04858,0.25839 4.0925646,5.5541949 0 0 1 -0.05271,0.27957 4.0925646,5.5541949 0 0 1 -0.140041,0.52141 4.0925646,5.5541949 0 0 1 -0.178284,0.50023 4.0925646,5.5541949 0 0 1 -0.213424,0.47336 4.0925646,5.5541949 0 0 1 -0.247531,0.44183 4.0925646,5.5541949 0 0 1 -0.04341,0.063 4.0925646,5.5541949 0 0 0 0.01344,0.001 4.0925646,5.5541949 0 0 0 0.289904,-0.0139 4.0925646,5.5541949 0 0 0 0.405662,-0.0667 4.0925646,5.5541949 0 0 0 0.399457,-0.12196 4.0925646,5.5541949 0 0 0 0.388091,-0.17467 4.0925646,5.5541949 0 0 0 0.373621,-0.22685 4.0925646,5.5541949 0 0 0 0.354499,-0.27647 4.0925646,5.5541949 0 0 0 0.332796,-0.32298 4.0925646,5.5541949 0 0 0 0.307474,-0.36639 4.0925646,5.5541949 0 0 0 0.279053,-0.40617 4.0925646,5.5541949 0 0 0 0.247531,-0.44184 4.0925646,5.5541949 0 0 0 0.213425,-0.47335 4.0925646,5.5541949 0 0 0 0.178284,-0.50023 4.0925646,5.5541949 0 0 0 0.08475,-0.31626 4.0925646,5.5541949 0 0 0 0.05529,-0.20516 4.0925646,5.5541949 0 0 0 0.101288,-0.53795 4.0925646,5.5541949 0 0 0 0.06098,-0.5488 4.0925646,5.5541949 0 0 0 0.02067,-0.55449 4.0925646,5.5541949 0 0 0 -0.01033,-0.39274 4.0925646,5.5541949 0 0 0 -0.04909,-0.55139 4.0925646,5.5541949 0 0 0 -0.08992,-0.54157 4.0925646,5.5541949 0 0 0 -0.128675,-0.5271 4.0925646,5.5541949 0 0 0 -0.167431,-0.50643 4.0925646,5.5541949 0 0 0 -0.108006,-0.25476 4.8481577,3.6595997 0 0 0 -0.109037,-0.094 4.8481577,3.6595997 0 0 0 -0.3545,-0.24908 4.8481577,3.6595997 0 0 0 -0.386021,-0.22169 4.8481577,3.6595997 0 0 0 -0.412896,-0.19121 4.8481577,3.6595997 0 0 0 -0.436666,-0.15916 4.8481577,3.6595997 0 0 0 -0.455268,-0.12506 4.8481577,3.6595997 0 0 0 -0.469223,-0.091 4.8481577,3.6595997 0 0 0 -0.479041,-0.0543 4.8481577,3.6595997 0 0 0 -0.484209,-0.0186 z"
       id="path1516" />
  </g>
</svg>
