<?xml version="1.0" encoding="UTF-8" standalone="no"?>
<svg
   xmlns:dc="http://purl.org/dc/elements/1.1/"
   xmlns:cc="http://creativecommons.org/ns#"
   xmlns:rdf="http://www.w3.org/1999/02/22-rdf-syntax-ns#"
   xmlns:svg="http://www.w3.org/2000/svg"
   xmlns="http://www.w3.org/2000/svg"
   xmlns:sodipodi="http://sodipodi.sourceforge.net/DTD/sodipodi-0.dtd"
   xmlns:inkscape="http://www.inkscape.org/namespaces/inkscape"
   id="svg8"
   version="1.1"
   viewBox="0 0 210 297"
   height="297mm"
   width="210mm"
   sodipodi:docname="scuffed_utils_logo_light.svg"
   inkscape:version="0.92.5 (2060ec1f9f, 2020-04-08)">
  <sodipodi:namedview
     pagecolor="#ffffff"
     bordercolor="#666666"
     borderopacity="1"
     objecttolerance="10"
     gridtolerance="10"
     guidetolerance="10"
     inkscape:pageopacity="0"
     inkscape:pageshadow="2"
     inkscape:window-width="1366"
     inkscape:window-height="718"
     id="namedview30"
     showgrid="false"
     inkscape:snap-global="false"
     inkscape:zoom="0.2973261"
     inkscape:cx="925.85897"
     inkscape:cy="787.95635"
     inkscape:window-x="0"
     inkscape:window-y="0"
     inkscape:window-maximized="1"
     inkscape:current-layer="svg8" />
  <defs
     id="defs2" />
  <metadata
     id="metadata5">
    <rdf:RDF>
      <cc:Work
         rdf:about="">
        <dc:format>image/svg+xml</dc:format>
        <dc:type
           rdf:resource="http://purl.org/dc/dcmitype/StillImage" />
        <dc:title></dc:title>
      </cc:Work>
    </rdf:RDF>
  </metadata>
  <g
     id="g1093"
     transform="matrix(2.0718827,0,0,2.0718827,-173.43367,-6.3653295)">
    <g
       id="g953">
      <circle
         r="36.528755"
         cy="65.712784"
         cx="134.40628"
         id="circle1465"
         style="fill:#cccccc;fill-opacity:1;stroke:none;stroke-width:0.25273949;stroke-opacity:1" />
    </g>
    <path
       inkscape:connector-curvature="0"
       id="path1467"
       d="m 141.40469,87.846526 a 4.8481577,3.6595997 0 0 1 -0.34313,-0.0093 4.8481577,3.6595997 0 0 1 -0.48111,-0.04392 4.8481577,3.6595997 0 0 1 -0.47284,-0.0801 4.8481577,3.6595997 0 0 1 -0.45992,-0.115755 4.8481577,3.6595997 0 0 1 -0.44235,-0.149344 4.8481577,3.6595997 0 0 1 -0.0884,-0.03824 4.0925646,5.5541949 0 0 0 0.0481,-0.0098 4.0925646,5.5541949 0 0 0 0.39636,-0.137459 4.0925646,5.5541949 0 0 0 0.38396,-0.190169 4.0925646,5.5541949 0 0 0 0.36845,-0.241848 4.0925646,5.5541949 0 0 0 0.34881,-0.289904 4.0925646,5.5541949 0 0 0 0.32556,-0.335896 4.0925646,5.5541949 0 0 0 0.29973,-0.378788 4.0925646,5.5541949 0 0 0 0.26975,-0.417029 4.0925646,5.5541949 0 0 0 0.23771,-0.451651 4.0925646,5.5541949 0 0 0 0.20361,-0.481627 4.0925646,5.5541949 0 0 0 0.16743,-0.506428 4.0925646,5.5541949 0 0 0 0.12867,-0.5271 4.0925646,5.5541949 0 0 0 0.0899,-0.541568 4.0925646,5.5541949 0 0 0 0.0491,-0.551389 4.0925646,5.5541949 0 0 0 0.0103,-0.39274 4.0925646,5.5541949 0 0 0 -0.0207,-0.554487 4.0925646,5.5541949 0 0 0 -0.061,-0.548804 4.0925646,5.5541949 0 0 0 -0.0486,-0.258384 4.0925646,5.5541949 0 0 0 -0.0527,-0.279569 4.0925646,5.5541949 0 0 0 -0.14004,-0.521415 4.0925646,5.5541949 0 0 0 -0.17828,-0.500226 4.0925646,5.5541949 0 0 0 -0.21343,-0.473358 4.0925646,5.5541949 0 0 0 -0.24753,-0.441833 4.0925646,5.5541949 0 0 0 -0.0434,-0.06305 4.0925646,5.5541949 0 0 1 0.0134,-10e-4 4.0925646,5.5541949 0 0 1 0.28991,0.01395 4.0925646,5.5541949 0 0 1 0.40566,0.06666 4.0925646,5.5541949 0 0 1 0.39946,0.121957 4.0925646,5.5541949 0 0 1 0.38809,0.174667 4.0925646,5.5541949 0 0 1 0.37362,0.226859 4.0925646,5.5541949 0 0 1 0.3545,0.276469 4.0925646,5.5541949 0 0 1 0.33279,0.322977 4.0925646,5.5541949 0 0 1 0.30748,0.366387 4.0925646,5.5541949 0 0 1 0.27905,0.406175 4.0925646,5.5541949 0 0 1 0.24753,0.441836 4.0925646,5.5541949 0 0 1 0.21343,0.473355 4.0925646,5.5541949 0 0 1 0.17828,0.500227 4.0925646,5.5541949 0 0 1 0.0848,0.316261 4.0925646,5.5541949 0 0 1 0.0553,0.205156 4.0925646,5.5541949 0 0 1 0.10129,0.53795 4.0925646,5.5541949 0 0 1 0.061,0.548804 4.0925646,5.5541949 0 0 1 0.0207,0.554488 4.0925646,5.5541949 0 0 1 -0.0103,0.392742 4.0925646,5.5541949 0 0 1 -0.0491,0.551386 4.0925646,5.5541949 0 0 1 -0.0899,0.541571 4.0925646,5.5541949 0 0 1 -0.12868,0.527097 4.0925646,5.5541949 0 0 1 -0.16743,0.506431 4.0925646,5.5541949 0 0 1 -0.108,0.254765 4.8481577,3.6595997 0 0 1 -0.10904,0.09405 4.8481577,3.6595997 0 0 1 -0.3545,0.249081 4.8481577,3.6595997 0 0 1 -0.38602,0.221692 4.8481577,3.6595997 0 0 1 -0.4129,0.191204 4.8481577,3.6595997 0 0 1 -0.43666,0.159162 4.8481577,3.6595997 0 0 1 -0.45527,0.125058 4.8481577,3.6595997 0 0 1 -0.46922,0.09095 4.8481577,3.6595997 0 0 1 -0.47905,0.05426 4.8481577,3.6595997 0 0 1 -0.4842,0.01861 z"
       style="fill:#b3b3b3;fill-opacity:1;stroke:none;stroke-width:0.26458332;stroke-opacity:1" />
    <path
       inkscape:connector-curvature="0"
       id="path1469"
       d="m 135.98488,40.457179 a 4.8481577,3.6595997 0 0 0 -0.34313,0.0093 4.8481577,3.6595997 0 0 0 -0.48111,0.04392 4.8481577,3.6595997 0 0 0 -0.47284,0.0801 4.8481577,3.6595997 0 0 0 -0.45992,0.115755 4.8481577,3.6595997 0 0 0 -0.44235,0.149344 4.8481577,3.6595997 0 0 0 -0.0884,0.03824 4.0925646,5.5541949 0 0 1 0.0481,0.0098 4.0925646,5.5541949 0 0 1 0.39636,0.137459 4.0925646,5.5541949 0 0 1 0.38395,0.190169 4.0925646,5.5541949 0 0 1 0.36846,0.241848 4.0925646,5.5541949 0 0 1 0.34881,0.289904 4.0925646,5.5541949 0 0 1 0.32556,0.335896 4.0925646,5.5541949 0 0 1 0.29973,0.378788 4.0925646,5.5541949 0 0 1 0.26975,0.417029 4.0925646,5.5541949 0 0 1 0.23771,0.451651 4.0925646,5.5541949 0 0 1 0.2036,0.481627 4.0925646,5.5541949 0 0 1 0.16744,0.506428 4.0925646,5.5541949 0 0 1 0.12867,0.5271 4.0925646,5.5541949 0 0 1 0.0899,0.541568 4.0925646,5.5541949 0 0 1 0.0491,0.551389 4.0925646,5.5541949 0 0 1 0.0103,0.39274 4.0925646,5.5541949 0 0 1 -0.0207,0.554487 4.0925646,5.5541949 0 0 1 -0.061,0.548804 4.0925646,5.5541949 0 0 1 -0.0486,0.258384 4.0925646,5.5541949 0 0 1 -0.0527,0.279569 4.0925646,5.5541949 0 0 1 -0.14004,0.521415 4.0925646,5.5541949 0 0 1 -0.17828,0.500226 4.0925646,5.5541949 0 0 1 -0.21343,0.473358 4.0925646,5.5541949 0 0 1 -0.24753,0.441833 4.0925646,5.5541949 0 0 1 -0.0434,0.06305 4.0925646,5.5541949 0 0 0 0.0134,10e-4 4.0925646,5.5541949 0 0 0 0.2899,-0.01395 4.0925646,5.5541949 0 0 0 0.40567,-0.06666 4.0925646,5.5541949 0 0 0 0.39945,-0.121957 4.0925646,5.5541949 0 0 0 0.38809,-0.174667 4.0925646,5.5541949 0 0 0 0.37363,-0.226859 4.0925646,5.5541949 0 0 0 0.35449,-0.276469 4.0925646,5.5541949 0 0 0 0.3328,-0.322977 4.0925646,5.5541949 0 0 0 0.30748,-0.366387 4.0925646,5.5541949 0 0 0 0.27905,-0.406175 4.0925646,5.5541949 0 0 0 0.24753,-0.441836 4.0925646,5.5541949 0 0 0 0.21342,-0.473355 4.0925646,5.5541949 0 0 0 0.17829,-0.500227 4.0925646,5.5541949 0 0 0 0.0847,-0.316261 4.0925646,5.5541949 0 0 0 0.0553,-0.205156 4.0925646,5.5541949 0 0 0 0.10129,-0.53795 4.0925646,5.5541949 0 0 0 0.061,-0.548804 4.0925646,5.5541949 0 0 0 0.0207,-0.554488 4.0925646,5.5541949 0 0 0 -0.0103,-0.392742 4.0925646,5.5541949 0 0 0 -0.0491,-0.551386 4.0925646,5.5541949 0 0 0 -0.0899,-0.541571 4.0925646,5.5541949 0 0 0 -0.12868,-0.527097 4.0925646,5.5541949 0 0 0 -0.16743,-0.506431 4.0925646,5.5541949 0 0 0 -0.10801,-0.254765 4.8481577,3.6595997 0 0 0 -0.10903,-0.09405 4.8481577,3.6595997 0 0 0 -0.3545,-0.249081 4.8481577,3.6595997 0 0 0 -0.38602,-0.221692 4.8481577,3.6595997 0 0 0 -0.4129,-0.191204 4.8481577,3.6595997 0 0 0 -0.43667,-0.159162 4.8481577,3.6595997 0 0 0 -0.45526,-0.125058 4.8481577,3.6595997 0 0 0 -0.46923,-0.09095 4.8481577,3.6595997 0 0 0 -0.47904,-0.05426 4.8481577,3.6595997 0 0 0 -0.48421,-0.01861 z"
       style="fill:#b3b3b3;fill-opacity:1;stroke:none;stroke-width:0.26458332;stroke-opacity:1" />
    <path
       inkscape:connector-curvature="0"
       style="fill:#ff5555;fill-opacity:1;stroke:none;stroke-width:0.31753197;stroke-opacity:1"
       d="m 110.00776,56.952543 a 15.926908,16.657724 0 0 0 -1.05988,0.974101 15.926908,16.657724 0 0 0 -1.08521,1.218014 15.926908,16.657724 0 0 0 -0.96325,1.325499 15.926908,16.657724 0 0 0 -0.83199,1.419554 15.926908,16.657724 0 0 0 -0.69246,1.499647 15.926908,16.657724 0 0 0 -0.54622,1.564246 15.926908,16.657724 0 0 0 -0.39377,1.612823 15.926908,16.657724 0 0 0 -0.23772,1.64641 15.926908,16.657724 0 0 0 -0.0796,1.663464 15.926908,16.657724 0 0 0 0.0398,1.178224 15.926908,16.657724 0 0 0 0.19172,1.652611 15.926908,16.657724 0 0 0 0.34882,1.624709 15.926908,16.657724 0 0 0 0.50178,1.580263 15.926908,16.657724 0 0 0 0.6506,1.519804 15.926908,16.657724 0 0 0 0.7922,1.444358 15.926908,16.657724 0 0 0 0.92605,1.354439 15.926908,16.657724 0 0 0 1.05058,1.251085 15.926908,16.657724 0 0 0 1.16478,1.134816 15.926908,16.657724 0 0 0 1.26763,1.00769 15.926908,16.657724 0 0 0 1.35702,0.87023 15.926908,16.657724 0 0 0 1.4335,0.724503 15.926908,16.657724 0 0 0 1.49552,0.570508 15.926908,16.657724 0 0 0 1.54254,0.41238 15.926908,16.657724 0 0 0 1.57406,0.248563 15.926908,16.657724 0 0 0 1.59008,0.0832 15.926908,16.657724 0 0 0 1.12655,-0.04186 15.926908,16.657724 0 0 0 1.58078,-0.200504 15.926908,16.657724 0 0 0 0.43667,-0.102836 15.926908,16.657724 0 0 0 1.11673,-0.262001 15.926908,16.657724 0 0 0 1.5105,-0.525031 15.926908,16.657724 0 0 0 1.45314,-0.680064 15.926908,16.657724 0 0 0 1.38131,-0.828373 15.926908,16.657724 0 0 0 1.29501,-0.968415 15.926908,16.657724 0 0 0 1.19579,-1.099158 15.926908,16.657724 0 0 0 1.08521,-1.218012 15.926908,16.657724 0 0 0 0.96325,-1.325502 c 0.20505,-0.383058 0.78159,-1.055145 1.01492,-1.420069 0.29993,-0.458362 0.62159,-0.900747 0.96377,-1.325499 0.34208,-0.424844 0.70427,-0.83153 1.0852,-1.218531 0.38084,-0.386828 0.77994,-0.753501 1.1958,-1.098642 0.41595,-0.345358 0.84816,-0.66874 1.29501,-0.968931 0.44677,-0.300024 0.90761,-0.576492 1.38079,-0.828373 0.47324,-0.251881 0.95823,-0.478854 1.45314,-0.680064 0.49499,-0.20125 0.99929,-0.376478 1.51102,-0.525031 0.51166,-0.148622 1.0301,-0.270386 1.55339,-0.364837 0.52323,-0.09434 1.05065,-0.161261 1.58027,-0.200504 0.37493,-0.02785 0.75068,-0.04181 1.12655,-0.04186 0.30785,0.0067 0.61545,0.02273 0.92242,0.04806 -0.0993,-0.08082 -0.19961,-0.160409 -0.30076,-0.238747 -0.43818,-0.313727 -0.89108,-0.60434 -1.35702,-0.870746 -0.46616,-0.266187 -0.94477,-0.507817 -1.43402,-0.723987 -0.48909,-0.216297 -0.98822,-0.406877 -1.49552,-0.571024 -0.50729,-0.164095 -1.02211,-0.301554 -1.54254,-0.411861 -0.52039,-0.110419 -1.04573,-0.193548 -1.57406,-0.249081 -0.52837,-0.05544 -1.05906,-0.08321 -1.59008,-0.0832 -0.14631,0.0034 -0.29257,0.0089 -0.43874,0.01654 a 15.926908,16.657724 0 0 0 -0.68781,0.02532 15.926908,16.657724 0 0 0 -1.58027,0.200504 15.926908,16.657724 0 0 0 -0.43718,0.102836 15.926908,16.657724 0 0 0 -1.11621,0.262001 15.926908,16.657724 0 0 0 -0.83406,0.289904 15.926908,16.657724 0 0 0 -0.67696,0.235127 15.926908,16.657724 0 0 0 -1.45314,0.680064 15.926908,16.657724 0 0 0 -0.95446,0.572574 15.926908,16.657724 0 0 1 -0.83406,0.289904 15.926908,16.657724 0 0 1 -1.5534,0.364837 15.926908,16.657724 0 0 1 -1.58026,0.200504 15.926908,16.657724 0 0 1 -1.12655,0.04186 15.926908,16.657724 0 0 1 -1.59008,-0.0832 15.926908,16.657724 0 0 1 -1.57458,-0.249081 15.926908,16.657724 0 0 1 -1.54254,-0.411861 15.926908,16.657724 0 0 1 -1.495,-0.571024 15.926908,16.657724 0 0 1 -1.43402,-0.723987 15.926908,16.657724 0 0 1 -1.35702,-0.87023 15.926908,16.657724 0 0 1 -1.26762,-1.00769 15.926908,16.657724 0 0 1 -0.27544,-0.268719 15.926908,16.657724 0 0 1 -0.88935,-0.866613 15.926908,16.657724 0 0 1 -1.05058,-1.250569 15.926908,16.657724 0 0 1 -0.92604,-1.354439 15.926908,16.657724 0 0 1 -0.7922,-1.444358 15.926908,16.657724 0 0 1 -0.65009,-1.519804 15.926908,16.657724 0 0 1 -0.5023,-1.580263 15.926908,16.657724 0 0 1 -0.3483,-1.624709 15.926908,16.657724 0 0 1 -0.002,-0.01188 z m 28.34297,10.783837 c -0.38083,0.387006 -0.77992,0.753849 -1.19579,1.099159 -0.38298,0.31514 -0.77958,0.611727 -1.18856,0.888833 a 15.926908,16.657724 0 0 0 1.18856,-0.888833 15.926908,16.657724 0 0 0 1.19579,-1.099159 z m -2.37918,2.139921 c -1e-5,0.555358 -0.0266,1.110366 -0.0796,1.662949 -0.0531,0.552614 -0.13263,1.102103 -0.23823,1.646409 -0.10548,0.544134 -0.2369,1.082416 -0.39378,1.612823 -0.15685,0.530604 -0.33898,1.052672 -0.5457,1.564246 a 15.926908,16.657724 0 0 0 0.5457,-1.564246 15.926908,16.657724 0 0 0 0.39378,-1.612823 15.926908,16.657724 0 0 0 0.23823,-1.646409 15.926908,16.657724 0 0 0 0.0796,-1.662949 z m -1.26091,6.494695 c -0.2059,0.508733 -0.43565,1.006547 -0.68884,1.491383 -0.20507,0.382881 -0.42452,0.757139 -0.65785,1.121894 a 15.926908,16.657724 0 0 0 0.65785,-1.121894 15.926908,16.657724 0 0 0 0.68884,-1.491383 z"
       id="path1471" />
    <path
       inkscape:connector-curvature="0"
       style="fill:#306998;fill-opacity:1;stroke:none;stroke-width:0.26458332;stroke-opacity:1"
       d="m 134.40628,29.189949 a 36.523048,36.523048 0 0 0 -2.58331,0.09147 36.523048,36.523048 0 0 0 -3.62458,0.439766 36.523048,36.523048 0 0 0 -3.56206,0.799436 36.523048,36.523048 0 0 0 -3.46439,1.15135 36.523048,36.523048 0 0 0 -3.33261,1.491382 36.523048,36.523048 0 0 0 -3.16673,1.816426 36.523048,36.523048 0 0 0 -2.96933,2.123384 36.523048,36.523048 0 0 0 -2.74298,2.409672 36.523048,36.523048 0 0 0 -2.48822,2.671156 36.523048,36.523048 0 0 0 -2.20969,2.906282 36.523048,36.523048 0 0 0 -1.27899,2.086178 36.523048,36.523048 0 0 0 -0.6289,1.026293 36.523048,36.523048 0 0 0 -1.58802,3.287138 36.523048,36.523048 0 0 0 -1.252119,3.429764 36.523048,36.523048 0 0 0 -0.903304,3.537252 36.523048,36.523048 0 0 0 -0.545187,3.609599 36.523048,36.523048 0 0 0 -0.182418,3.646289 36.523048,36.523048 0 0 0 0.09147,2.583823 36.523048,36.523048 0 0 0 0.439767,3.624067 36.523048,36.523048 0 0 0 0.799433,3.562056 36.523048,36.523048 0 0 0 1.151348,3.464388 36.523048,36.523048 0 0 0 1.49138,3.332615 36.523048,36.523048 0 0 0 1.81643,3.166732 36.523048,36.523048 0 0 0 2.12338,2.969326 36.523048,36.523048 0 0 0 1.53634,1.749248 36.523048,36.523048 0 0 0 0.87334,0.993738 36.523048,36.523048 0 0 0 2.67115,2.488221 36.523048,36.523048 0 0 0 2.90628,2.209683 36.523048,36.523048 0 0 0 3.11247,1.907895 36.523048,36.523048 0 0 0 3.28714,1.58801 36.523048,36.523048 0 0 0 3.42977,1.252122 36.523048,36.523048 0 0 0 3.53725,0.90331 36.523048,36.523048 0 0 0 3.6096,0.54518 36.523048,36.523048 0 0 0 3.64629,0.18242 36.523048,36.523048 0 0 0 2.5833,-0.0915 36.523048,36.523048 0 0 0 3.62459,-0.43976 36.523048,36.523048 0 0 0 3.56205,-0.79944 36.523048,36.523048 0 0 0 0.15555,-0.0517 24.216218,24.216218 0 0 0 0.63717,-0.45578 24.216218,24.216218 0 0 0 1.81901,-1.597322 24.216218,24.216218 0 0 0 1.65003,-1.77147 24.216218,24.216218 0 0 0 1.46451,-1.927009 24.216218,24.216218 0 0 0 1.26555,-2.063438 24.216218,24.216218 0 0 0 1.05265,-2.179714 24.216218,24.216218 0 0 0 0.82993,-2.273763 24.216218,24.216218 0 0 0 0.59893,-2.345592 24.216218,24.216218 0 0 0 0.23047,-1.525489 24.216218,24.216218 0 0 0 0.13126,-0.867646 24.216218,24.216218 0 0 0 0.12092,-2.41794 24.216218,24.216218 0 0 0 -0.0605,-1.712558 24.216218,24.216218 0 0 0 -0.29197,-2.403469 24.216218,24.216218 0 0 0 -0.52968,-2.361615 24.216218,24.216218 0 0 0 -0.76326,-2.297018 24.216218,24.216218 0 0 0 -0.10594,-0.236159 24.216218,24.216218 0 0 1 -0.7214,1.977655 24.216218,24.216218 0 0 1 -1.05265,2.179195 24.216218,24.216218 0 0 1 -1.26555,2.063957 24.216218,24.216218 0 0 1 -1.46503,1.927016 24.216218,24.216218 0 0 1 -1.64951,1.770951 24.216218,24.216218 0 0 1 -1.81902,1.597835 24.216218,24.216218 0 0 1 -1.96886,1.407665 24.216218,24.216218 0 0 1 -2.09962,1.204579 24.216218,24.216218 0 0 1 -2.20917,0.988568 24.216218,24.216218 0 0 1 -2.29753,0.763262 24.216218,24.216218 0 0 1 -2.36162,0.530201 24.216218,24.216218 0 0 1 -2.40295,0.291971 24.216218,24.216218 0 0 1 -1.71307,0.06046 24.216218,24.216218 0 0 1 -2.41743,-0.120922 24.216218,24.216218 0 0 1 -2.39365,-0.361736 24.216218,24.216218 0 0 1 -1.86655,-0.476456 26.453825,26.453825 0 0 1 -1.71101,-1.049549 26.453825,26.453825 0 0 1 -2.1053,-1.60042 26.453825,26.453825 0 0 1 -1.93476,-1.802474 26.453825,26.453825 0 0 1 -1.74511,-1.986441 26.453825,26.453825 0 0 1 -1.53841,-2.150774 26.453825,26.453825 0 0 1 -1.31568,-2.293917 26.453825,26.453825 0 0 1 -1.08004,-2.413288 26.453825,26.453825 0 0 1 -0.83354,-2.509409 26.453825,26.453825 0 0 1 -0.57929,-2.580203 26.453825,26.453825 0 0 1 -0.19534,-1.606622 26.453825,26.453825 0 0 1 -0.12351,-1.018542 26.453825,26.453825 0 0 1 -0.0661,-1.871202 26.453825,26.453825 0 0 1 0.1323,-2.641182 26.453825,26.453825 0 0 1 0.3948,-2.614311 26.453825,26.453825 0 0 1 0.38137,-1.493967 26.453825,26.453825 0 0 1 0.27286,-1.068152 26.453825,26.453825 0 0 1 0.90692,-2.484086 26.453825,26.453825 0 0 1 1.15031,-2.380731 26.453825,26.453825 0 0 1 1.38183,-2.254644 26.453825,26.453825 0 0 1 1.60042,-2.104782 26.453825,26.453825 0 0 1 1.80248,-1.934766 26.453825,26.453825 0 0 1 1.98644,-1.745112 26.453825,26.453825 0 0 1 2.15129,-1.538406 26.453825,26.453825 0 0 1 2.2934,-1.315683 26.453825,26.453825 0 0 1 1.53324,-0.686263 24.216218,24.216218 0 0 1 2.20503,-0.267685 24.216218,24.216218 0 0 1 1.71307,-0.06046 24.216218,24.216218 0 0 1 2.41743,0.120923 24.216218,24.216218 0 0 1 2.39365,0.361733 24.216218,24.216218 0 0 1 2.34508,0.598932 24.216218,24.216218 0 0 1 2.27428,0.829921 24.216218,24.216218 0 0 1 2.17919,1.05265 24.216218,24.216218 0 0 1 2.06396,1.265555 24.216218,24.216218 0 0 1 1.92701,1.464511 24.216218,24.216218 0 0 1 1.77095,1.650029 24.216218,24.216218 0 0 1 1.59784,1.819011 24.216218,24.216218 0 0 1 0.031,0.04341 24.216218,24.216218 0 0 0 0.12351,-0.256315 24.216218,24.216218 0 0 0 0.83044,-2.273763 24.216218,24.216218 0 0 0 0.59841,-2.345076 24.216218,24.216218 0 0 0 0.29662,-1.964222 24.216218,24.216218 0 0 0 0.0651,-0.429432 24.216218,24.216218 0 0 0 0.12144,-2.417421 24.216218,24.216218 0 0 0 -0.061,-1.713074 24.216218,24.216218 0 0 0 -0.29146,-2.402953 24.216218,24.216218 0 0 0 -0.5302,-2.361616 24.216218,24.216218 0 0 0 -0.51211,-1.540989 36.523048,36.523048 0 0 0 -0.3669,-0.177252 36.523048,36.523048 0 0 0 -3.42976,-1.252119 36.523048,36.523048 0 0 0 -3.53726,-0.903304 36.523048,36.523048 0 0 0 -3.6096,-0.545187 36.523048,36.523048 0 0 0 -3.64629,-0.182417 z"
       id="path1473" />
    <path
       inkscape:connector-curvature="0"
       style="fill:#c8b7b7;fill-opacity:1;stroke:none;stroke-width:0.26458332;stroke-opacity:1"
       d="m 139.53864,88.369558 a 4.8481577,3.6595997 0 0 1 -0.34313,-0.0093 4.8481577,3.6595997 0 0 1 -0.4811,-0.04392 4.8481577,3.6595997 0 0 1 -0.47284,-0.0801 4.8481577,3.6595997 0 0 1 -0.45992,-0.115755 4.8481577,3.6595997 0 0 1 -0.44236,-0.149344 4.8481577,3.6595997 0 0 1 -0.0884,-0.03824 4.0925646,5.5541949 0 0 0 0.0481,-0.0098 4.0925646,5.5541949 0 0 0 0.39636,-0.137459 4.0925646,5.5541949 0 0 0 0.38396,-0.190169 4.0925646,5.5541949 0 0 0 0.36845,-0.241848 4.0925646,5.5541949 0 0 0 0.34882,-0.289904 4.0925646,5.5541949 0 0 0 0.32556,-0.335896 4.0925646,5.5541949 0 0 0 0.29972,-0.378788 4.0925646,5.5541949 0 0 0 0.26975,-0.417029 4.0925646,5.5541949 0 0 0 0.23772,-0.451651 4.0925646,5.5541949 0 0 0 0.2036,-0.481627 4.0925646,5.5541949 0 0 0 0.16743,-0.506428 4.0925646,5.5541949 0 0 0 0.12868,-0.5271 4.0925646,5.5541949 0 0 0 0.0899,-0.541568 4.0925646,5.5541949 0 0 0 0.0491,-0.551389 4.0925646,5.5541949 0 0 0 0.0103,-0.39274 4.0925646,5.5541949 0 0 0 -0.0207,-0.554487 4.0925646,5.5541949 0 0 0 -0.061,-0.548804 4.0925646,5.5541949 0 0 0 -0.0486,-0.258384 4.0925646,5.5541949 0 0 0 -0.0527,-0.279569 4.0925646,5.5541949 0 0 0 -0.14004,-0.521415 4.0925646,5.5541949 0 0 0 -0.17829,-0.500226 4.0925646,5.5541949 0 0 0 -0.21342,-0.473358 4.0925646,5.5541949 0 0 0 -0.24753,-0.441833 4.0925646,5.5541949 0 0 0 -0.0434,-0.06305 4.0925646,5.5541949 0 0 1 0.0134,-10e-4 4.0925646,5.5541949 0 0 1 0.2899,0.01395 4.0925646,5.5541949 0 0 1 0.40566,0.06666 4.0925646,5.5541949 0 0 1 0.39946,0.121957 4.0925646,5.5541949 0 0 1 0.38809,0.174667 4.0925646,5.5541949 0 0 1 0.37362,0.226859 4.0925646,5.5541949 0 0 1 0.3545,0.276469 4.0925646,5.5541949 0 0 1 0.3328,0.322977 4.0925646,5.5541949 0 0 1 0.30747,0.366387 4.0925646,5.5541949 0 0 1 0.27905,0.406175 4.0925646,5.5541949 0 0 1 0.24754,0.441836 4.0925646,5.5541949 0 0 1 0.21342,0.473355 4.0925646,5.5541949 0 0 1 0.17828,0.500227 4.0925646,5.5541949 0 0 1 0.0848,0.316261 4.0925646,5.5541949 0 0 1 0.0553,0.205156 4.0925646,5.5541949 0 0 1 0.10129,0.53795 4.0925646,5.5541949 0 0 1 0.061,0.548804 4.0925646,5.5541949 0 0 1 0.0207,0.554488 4.0925646,5.5541949 0 0 1 -0.0103,0.392742 4.0925646,5.5541949 0 0 1 -0.0491,0.551386 4.0925646,5.5541949 0 0 1 -0.0899,0.541571 4.0925646,5.5541949 0 0 1 -0.12867,0.527097 4.0925646,5.5541949 0 0 1 -0.16743,0.506431 4.0925646,5.5541949 0 0 1 -0.10801,0.254765 4.8481577,3.6595997 0 0 1 -0.10904,0.09405 4.8481577,3.6595997 0 0 1 -0.3545,0.249081 4.8481577,3.6595997 0 0 1 -0.38602,0.221692 4.8481577,3.6595997 0 0 1 -0.41289,0.191204 4.8481577,3.6595997 0 0 1 -0.43667,0.159162 4.8481577,3.6595997 0 0 1 -0.45527,0.125058 4.8481577,3.6595997 0 0 1 -0.46922,0.09095 4.8481577,3.6595997 0 0 1 -0.47904,0.05426 4.8481577,3.6595997 0 0 1 -0.48421,0.01861 z"
       id="path1475" />
    <path
       inkscape:connector-curvature="0"
       style="fill:#c8b7b7;fill-opacity:1;stroke:none;stroke-width:0.26458332;stroke-opacity:1"
       d="m 138.53019,40.353826 a 4.8481577,3.6595997 0 0 0 -0.34313,0.0093 4.8481577,3.6595997 0 0 0 -0.48111,0.04392 4.8481577,3.6595997 0 0 0 -0.47284,0.0801 4.8481577,3.6595997 0 0 0 -0.45992,0.115755 4.8481577,3.6595997 0 0 0 -0.44235,0.149344 4.8481577,3.6595997 0 0 0 -0.0884,0.03824 4.0925646,5.5541949 0 0 1 0.0481,0.0098 4.0925646,5.5541949 0 0 1 0.39636,0.137459 4.0925646,5.5541949 0 0 1 0.38396,0.190169 4.0925646,5.5541949 0 0 1 0.36845,0.241848 4.0925646,5.5541949 0 0 1 0.34881,0.289904 4.0925646,5.5541949 0 0 1 0.32557,0.335896 4.0925646,5.5541949 0 0 1 0.29972,0.378788 4.0925646,5.5541949 0 0 1 0.26975,0.417029 4.0925646,5.5541949 0 0 1 0.23771,0.451651 4.0925646,5.5541949 0 0 1 0.20361,0.481627 4.0925646,5.5541949 0 0 1 0.16743,0.506428 4.0925646,5.5541949 0 0 1 0.12868,0.5271 4.0925646,5.5541949 0 0 1 0.0899,0.541568 4.0925646,5.5541949 0 0 1 0.0491,0.551389 4.0925646,5.5541949 0 0 1 0.0103,0.39274 4.0925646,5.5541949 0 0 1 -0.0207,0.554487 4.0925646,5.5541949 0 0 1 -0.061,0.548804 4.0925646,5.5541949 0 0 1 -0.0486,0.258384 4.0925646,5.5541949 0 0 1 -0.0527,0.279569 4.0925646,5.5541949 0 0 1 -0.14004,0.521415 4.0925646,5.5541949 0 0 1 -0.17828,0.500226 4.0925646,5.5541949 0 0 1 -0.21342,0.473358 4.0925646,5.5541949 0 0 1 -0.24754,0.441833 4.0925646,5.5541949 0 0 1 -0.0434,0.06305 4.0925646,5.5541949 0 0 0 0.0134,10e-4 4.0925646,5.5541949 0 0 0 0.2899,-0.01395 4.0925646,5.5541949 0 0 0 0.40566,-0.06666 4.0925646,5.5541949 0 0 0 0.39946,-0.121957 4.0925646,5.5541949 0 0 0 0.38809,-0.174667 4.0925646,5.5541949 0 0 0 0.37362,-0.226859 4.0925646,5.5541949 0 0 0 0.3545,-0.276469 4.0925646,5.5541949 0 0 0 0.33279,-0.322977 4.0925646,5.5541949 0 0 0 0.30748,-0.366387 4.0925646,5.5541949 0 0 0 0.27905,-0.406175 4.0925646,5.5541949 0 0 0 0.24753,-0.441836 4.0925646,5.5541949 0 0 0 0.21343,-0.473355 4.0925646,5.5541949 0 0 0 0.17828,-0.500227 4.0925646,5.5541949 0 0 0 0.0847,-0.316261 4.0925646,5.5541949 0 0 0 0.0553,-0.205156 4.0925646,5.5541949 0 0 0 0.10129,-0.53795 4.0925646,5.5541949 0 0 0 0.061,-0.548804 4.0925646,5.5541949 0 0 0 0.0207,-0.554488 4.0925646,5.5541949 0 0 0 -0.0103,-0.392742 4.0925646,5.5541949 0 0 0 -0.0491,-0.551386 4.0925646,5.5541949 0 0 0 -0.0899,-0.541571 4.0925646,5.5541949 0 0 0 -0.12868,-0.527097 4.0925646,5.5541949 0 0 0 -0.16743,-0.506431 4.0925646,5.5541949 0 0 0 -0.108,-0.254765 4.8481577,3.6595997 0 0 0 -0.10904,-0.09405 4.8481577,3.6595997 0 0 0 -0.3545,-0.249081 4.8481577,3.6595997 0 0 0 -0.38602,-0.221692 4.8481577,3.6595997 0 0 0 -0.4129,-0.191204 4.8481577,3.6595997 0 0 0 -0.43666,-0.159162 4.8481577,3.6595997 0 0 0 -0.45527,-0.125058 4.8481577,3.6595997 0 0 0 -0.46922,-0.09095 4.8481577,3.6595997 0 0 0 -0.47904,-0.05426 4.8481577,3.6595997 0 0 0 -0.48421,-0.01861 z"
       id="path1477" />
  </g>
</svg>
